<?xml version="1.0" encoding="UTF-8"?>
<!--Generator: Apple Native CoreSVG 149-->
<!DOCTYPE svg
PUBLIC "-//W3C//DTD SVG 1.1//EN"
       "http://www.w3.org/Graphics/SVG/1.1/DTD/svg11.dtd">
<svg version="1.1" xmlns="http://www.w3.org/2000/svg" xmlns:xlink="http://www.w3.org/1999/xlink" width="3300" height="2200">
 <!--glyph: "uni100987.medium", point size: 100.000000, font version: "Version 16.0d18e1", template writer version: "8"-->
 <g id="Notes">
  <rect height="2200" id="artboard" style="fill:white;opacity:1" width="3300" x="0" y="0"/>
  <line id="" style="fill:none;stroke:black;opacity:1;stroke-width:0.5;" x1="263" x2="3036" y1="292" y2="292"/>
  <text style="stroke:none;fill:black;font-family:-apple-system,&quot;SF Pro Display&quot;,&quot;SF Pro Text&quot;,Helvetica,sans-serif;font-weight:bold;" transform="matrix(1 0 0 1 263 322)">Weight/Scale Variations</text>
  <text style="stroke:none;fill:black;font-family:-apple-system,&quot;SF Pro Display&quot;,&quot;SF Pro Text&quot;,Helvetica,sans-serif;text-anchor:middle;" transform="matrix(1 0 0 1 559.711 322)">Ultralight</text>
  <text style="stroke:none;fill:black;font-family:-apple-system,&quot;SF Pro Display&quot;,&quot;SF Pro Text&quot;,Helvetica,sans-serif;text-anchor:middle;" transform="matrix(1 0 0 1 856.422 322)">Thin</text>
  <text style="stroke:none;fill:black;font-family:-apple-system,&quot;SF Pro Display&quot;,&quot;SF Pro Text&quot;,Helvetica,sans-serif;text-anchor:middle;" transform="matrix(1 0 0 1 1153.13 322)">Light</text>
  <text style="stroke:none;fill:black;font-family:-apple-system,&quot;SF Pro Display&quot;,&quot;SF Pro Text&quot;,Helvetica,sans-serif;text-anchor:middle;" transform="matrix(1 0 0 1 1449.84 322)">Regular</text>
  <text style="stroke:none;fill:black;font-family:-apple-system,&quot;SF Pro Display&quot;,&quot;SF Pro Text&quot;,Helvetica,sans-serif;text-anchor:middle;" transform="matrix(1 0 0 1 1746.56 322)">Medium</text>
  <text style="stroke:none;fill:black;font-family:-apple-system,&quot;SF Pro Display&quot;,&quot;SF Pro Text&quot;,Helvetica,sans-serif;text-anchor:middle;" transform="matrix(1 0 0 1 2043.27 322)">Semibold</text>
  <text style="stroke:none;fill:black;font-family:-apple-system,&quot;SF Pro Display&quot;,&quot;SF Pro Text&quot;,Helvetica,sans-serif;text-anchor:middle;" transform="matrix(1 0 0 1 2339.98 322)">Bold</text>
  <text style="stroke:none;fill:black;font-family:-apple-system,&quot;SF Pro Display&quot;,&quot;SF Pro Text&quot;,Helvetica,sans-serif;text-anchor:middle;" transform="matrix(1 0 0 1 2636.69 322)">Heavy</text>
  <text style="stroke:none;fill:black;font-family:-apple-system,&quot;SF Pro Display&quot;,&quot;SF Pro Text&quot;,Helvetica,sans-serif;text-anchor:middle;" transform="matrix(1 0 0 1 2933.4 322)">Black</text>
  <line id="" style="fill:none;stroke:black;opacity:1;stroke-width:0.5;" x1="263" x2="3036" y1="1903" y2="1903"/>
  <g id="" transform="matrix(1 0 0 1 263 1933)">
   <path d="M9.24805 0.830078C13.5547 0.830078 17.1387-2.74414 17.1387-7.05078C17.1387-11.3574 13.5449-14.9316 9.23828-14.9316C4.94141-14.9316 1.36719-11.3574 1.36719-7.05078C1.36719-2.74414 4.95117 0.830078 9.24805 0.830078ZM9.24805-0.654297C5.70312-0.654297 2.87109-3.49609 2.87109-7.05078C2.87109-10.6055 5.69336-13.4473 9.23828-13.4473C12.793-13.4473 15.6348-10.6055 15.6445-7.05078C15.6543-3.49609 12.8027-0.654297 9.24805-0.654297ZM6.39648-6.31836L8.50586-6.31836L8.50586-4.19922C8.50586-3.75977 8.79883-3.45703 9.22852-3.45703C9.67773-3.45703 9.9707-3.75977 9.9707-4.19922L9.9707-6.31836L12.0996-6.31836C12.5391-6.31836 12.8418-6.61133 12.8418-7.04102C12.8418-7.48047 12.5391-7.7832 12.0996-7.7832L9.9707-7.7832L9.9707-9.89258C9.9707-10.3418 9.67773-10.6445 9.22852-10.6445C8.79883-10.6445 8.50586-10.3418 8.50586-9.89258L8.50586-7.7832L6.39648-7.7832C5.94727-7.7832 5.64453-7.48047 5.64453-7.04102C5.64453-6.61133 5.94727-6.31836 6.39648-6.31836Z"/>
  </g>
  <g id="" transform="matrix(1 0 0 1 281.506 1933)">
   <path d="M11.709 2.91016C17.1582 2.91016 21.6699-1.61133 21.6699-7.05078C21.6699-12.5 17.1484-17.0117 11.6992-17.0117C6.25977-17.0117 1.74805-12.5 1.74805-7.05078C1.74805-1.61133 6.26953 2.91016 11.709 2.91016ZM11.709 1.25C7.09961 1.25 3.41797-2.44141 3.41797-7.05078C3.41797-11.6602 7.08984-15.3516 11.6992-15.3516C16.3086-15.3516 20-11.6602 20.0098-7.05078C20.0195-2.44141 16.3184 1.25 11.709 1.25ZM7.98828-6.23047L10.8789-6.23047L10.8789-3.32031C10.8789-2.83203 11.2109-2.5 11.6895-2.5C12.1777-2.5 12.5195-2.83203 12.5195-3.32031L12.5195-6.23047L15.4297-6.23047C15.918-6.23047 16.25-6.5625 16.25-7.04102C16.25-7.5293 15.918-7.87109 15.4297-7.87109L12.5195-7.87109L12.5195-10.7617C12.5195-11.2695 12.1777-11.6016 11.6895-11.6016C11.2109-11.6016 10.8789-11.2598 10.8789-10.7617L10.8789-7.87109L7.98828-7.87109C7.48047-7.87109 7.14844-7.5293 7.14844-7.04102C7.14844-6.5625 7.49023-6.23047 7.98828-6.23047Z"/>
  </g>
  <g id="" transform="matrix(1 0 0 1 304.924 1933)">
   <path d="M14.9707 5.66406C21.9336 5.66406 27.6953-0.0976562 27.6953-7.05078C27.6953-14.0137 21.9238-19.7754 14.9609-19.7754C8.00781-19.7754 2.25586-14.0137 2.25586-7.05078C2.25586-0.0976562 8.01758 5.66406 14.9707 5.66406ZM14.9707 3.84766C8.93555 3.84766 4.08203-1.01562 4.08203-7.05078C4.08203-13.0957 8.92578-17.9492 14.9609-17.9492C21.0059-17.9492 25.8594-13.0957 25.8691-7.05078C25.8789-1.01562 21.0156 3.84766 14.9707 3.84766ZM10.0586-6.14258L14.0625-6.14258L14.0625-2.12891C14.0625-1.5918 14.4336-1.2207 14.9512-1.2207C15.4883-1.2207 15.8594-1.5918 15.8594-2.12891L15.8594-6.14258L19.8828-6.14258C20.4102-6.14258 20.791-6.51367 20.791-7.03125C20.791-7.56836 20.4199-7.94922 19.8828-7.94922L15.8594-7.94922L15.8594-11.9531C15.8594-12.5098 15.4883-12.8809 14.9512-12.8809C14.4336-12.8809 14.0625-12.5 14.0625-11.9531L14.0625-7.94922L10.0586-7.94922C9.50195-7.94922 9.13086-7.56836 9.13086-7.03125C9.13086-6.51367 9.51172-6.14258 10.0586-6.14258Z"/>
  </g>
  <text style="stroke:none;fill:black;font-family:-apple-system,&quot;SF Pro Display&quot;,&quot;SF Pro Text&quot;,Helvetica,sans-serif;font-weight:bold;" transform="matrix(1 0 0 1 263 1953)">Design Variations</text>
  <text style="stroke:none;fill:black;font-family:-apple-system,&quot;SF Pro Display&quot;,&quot;SF Pro Text&quot;,Helvetica,sans-serif;" transform="matrix(1 0 0 1 263 1971)">Symbols are supported in up to nine weights and three scales.</text>
  <text style="stroke:none;fill:black;font-family:-apple-system,&quot;SF Pro Display&quot;,&quot;SF Pro Text&quot;,Helvetica,sans-serif;" transform="matrix(1 0 0 1 263 1989)">For optimal layout with text and other symbols, vertically align</text>
  <text style="stroke:none;fill:black;font-family:-apple-system,&quot;SF Pro Display&quot;,&quot;SF Pro Text&quot;,Helvetica,sans-serif;" transform="matrix(1 0 0 1 263 2007)">symbols with the adjacent text.</text>
  <line id="" style="fill:none;stroke:#00AEEF;stroke-width:0.5;opacity:1.0;" x1="776" x2="776" y1="1919" y2="1933"/>
  <g id="" transform="matrix(1 0 0 1 776 1933)">
   <path d="M3.31055 0.126953C3.82812 0.126953 4.08203-0.0683594 4.26758-0.605469L5.52734-4.0625L11.2891-4.0625L12.5488-0.605469C12.7344-0.0683594 12.9883 0.126953 13.4961 0.126953C14.0137 0.126953 14.3457-0.185547 14.3457-0.673828C14.3457-0.839844 14.3164-0.986328 14.2383-1.20117L9.6582-13.3887C9.43359-13.9941 9.0332-14.2871 8.4082-14.2871C7.80273-14.2871 7.39258-13.9941 7.17773-13.3984L2.59766-1.19141C2.51953-0.976562 2.49023-0.830078 2.49023-0.664062C2.49023-0.175781 2.80273 0.126953 3.31055 0.126953ZM6.00586-5.53711L8.37891-12.1094L8.42773-12.1094L10.8008-5.53711Z"/>
  </g>
  <line id="" style="fill:none;stroke:#00AEEF;stroke-width:0.5;opacity:1.0;" x1="792.836" x2="792.836" y1="1919" y2="1933"/>
  <text style="stroke:none;fill:black;font-family:-apple-system,&quot;SF Pro Display&quot;,&quot;SF Pro Text&quot;,Helvetica,sans-serif;font-weight:bold;" transform="matrix(1 0 0 1 776 1953)">Margins</text>
  <text style="stroke:none;fill:black;font-family:-apple-system,&quot;SF Pro Display&quot;,&quot;SF Pro Text&quot;,Helvetica,sans-serif;" transform="matrix(1 0 0 1 776 1971)">Leading and trailing margins on the left and right side of each symbol</text>
  <text style="stroke:none;fill:black;font-family:-apple-system,&quot;SF Pro Display&quot;,&quot;SF Pro Text&quot;,Helvetica,sans-serif;" transform="matrix(1 0 0 1 776 1989)">can be adjusted by modifying the x-location of the margin guidelines.</text>
  <text style="stroke:none;fill:black;font-family:-apple-system,&quot;SF Pro Display&quot;,&quot;SF Pro Text&quot;,Helvetica,sans-serif;" transform="matrix(1 0 0 1 776 2007)">Modifications are automatically applied proportionally to all</text>
  <text style="stroke:none;fill:black;font-family:-apple-system,&quot;SF Pro Display&quot;,&quot;SF Pro Text&quot;,Helvetica,sans-serif;" transform="matrix(1 0 0 1 776 2025)">scales and weights.</text>
  <g id="" transform="matrix(1 0 0 1 1289 1933)">
   <path d="M2.8418 1.86523L4.54102 3.57422C5.40039 4.44336 6.38672 4.38477 7.31445 3.35938L17.4902-7.85156C17.7539-7.76367 18.0273-7.7832 18.3398-7.8418L19.4043-8.03711L20.0684-7.36328L20.0293-6.80664C19.9902-6.30859 20.1172-5.92773 20.6055-5.44922L21.3672-4.70703C21.8457-4.22852 22.4609-4.19922 22.9297-4.66797L25.8398-7.58789C26.3086-8.05664 26.2891-8.65234 25.8105-9.13086L25.0391-9.89258C24.5605-10.3711 24.1895-10.5273 23.7109-10.4883L23.1348-10.4395L22.4902-11.0742L22.7344-12.1973C22.8613-12.7637 22.7051-13.2031 22.1191-13.7891L19.9219-15.9766C16.582-19.2969 12.1484-19.2188 9.25781-16.3281C8.83789-15.918 8.80859-15.3418 9.04297-14.9512C9.27734-14.5898 9.73633-14.3555 10.3809-14.5215C11.8457-14.8633 13.3691-14.9219 14.7949-13.9844L14.209-12.5293C14.0137-12.0508 13.9844-11.6504 14.1113-11.2891L3.04688-0.898438C2.06055 0.0195312 1.98242 0.996094 2.8418 1.86523ZM10.752-15.957C13.1836-17.7344 16.4746-17.4316 18.7012-15.2051L21.1328-12.793C21.3672-12.5586 21.4062-12.373 21.3379-12.0312L21.0156-10.5469L22.5195-9.0625L23.5059-9.12109C23.7598-9.13086 23.8379-9.11133 24.0332-8.91602L24.6094-8.33984L22.168-5.89844L21.5918-6.47461C21.3965-6.66992 21.3672-6.74805 21.377-7.01172L21.4453-7.98828L19.9512-9.47266L18.4277-9.21875C18.1055-9.15039 17.959-9.17969 17.7148-9.41406L15.7129-11.416C15.459-11.6504 15.4297-11.8164 15.5859-12.1875L16.4648-14.2773C14.9023-15.7324 12.8711-16.3574 10.8398-15.7617C10.6836-15.7227 10.625-15.8496 10.752-15.957ZM5.27344 2.30469L4.10156 1.14258C3.63281 0.683594 3.74023 0.341797 4.14062-0.0195312L14.9512-10.1953L16.416-8.71094L6.42578 2.27539C6.07422 2.67578 5.74219 2.77344 5.27344 2.30469Z"/>
  </g>
  <text style="stroke:none;fill:black;font-family:-apple-system,&quot;SF Pro Display&quot;,&quot;SF Pro Text&quot;,Helvetica,sans-serif;font-weight:bold;" transform="matrix(1 0 0 1 1289 1953)">Exporting</text>
  <text style="stroke:none;fill:black;font-family:-apple-system,&quot;SF Pro Display&quot;,&quot;SF Pro Text&quot;,Helvetica,sans-serif;" transform="matrix(1 0 0 1 1289 1971)">Symbols should be outlined when exporting to ensure the</text>
  <text style="stroke:none;fill:black;font-family:-apple-system,&quot;SF Pro Display&quot;,&quot;SF Pro Text&quot;,Helvetica,sans-serif;" transform="matrix(1 0 0 1 1289 1989)">design is preserved when submitting to Xcode.</text>
  <text id="template-version" style="stroke:none;fill:black;font-family:-apple-system,&quot;SF Pro Display&quot;,&quot;SF Pro Text&quot;,Helvetica,sans-serif;text-anchor:end;" transform="matrix(1 0 0 1 3036 1933)">Template v.2.0</text>
  <text style="stroke:none;fill:black;font-family:-apple-system,&quot;SF Pro Display&quot;,&quot;SF Pro Text&quot;,Helvetica,sans-serif;text-anchor:end;" transform="matrix(1 0 0 1 3036 1951)">Requires Xcode 12 or greater</text>
  <text style="stroke:none;fill:black;font-family:-apple-system,&quot;SF Pro Display&quot;,&quot;SF Pro Text&quot;,Helvetica,sans-serif;text-anchor:end;" transform="matrix(1 0 0 1 3036 1969)">Generated from highlighter</text>
  <text style="stroke:none;fill:black;font-family:-apple-system,&quot;SF Pro Display&quot;,&quot;SF Pro Text&quot;,Helvetica,sans-serif;text-anchor:end;" transform="matrix(1 0 0 1 3036 1987)">Typeset at 100 points</text>
  <text style="stroke:none;fill:black;font-family:-apple-system,&quot;SF Pro Display&quot;,&quot;SF Pro Text&quot;,Helvetica,sans-serif;" transform="matrix(1 0 0 1 263 726)">Small</text>
  <text style="stroke:none;fill:black;font-family:-apple-system,&quot;SF Pro Display&quot;,&quot;SF Pro Text&quot;,Helvetica,sans-serif;" transform="matrix(1 0 0 1 263 1156)">Medium</text>
  <text style="stroke:none;fill:black;font-family:-apple-system,&quot;SF Pro Display&quot;,&quot;SF Pro Text&quot;,Helvetica,sans-serif;" transform="matrix(1 0 0 1 263 1586)">Large</text>
 </g>
 <g id="Guides">
  <g id="H-reference" style="fill:#27AAE1;stroke:none;" transform="matrix(1 0 0 1 339 696)">
   <path d="M0.976562 0L3.66211 0L12.9883-24.4629L45.752-24.4629L55.127 0L57.7637 0L30.6152-70.459L28.125-70.459ZM29.3457-67.1387L29.4434-67.1387L44.873-26.709L13.8672-26.709Z"/>
  </g>
  <line id="Baseline-S" style="fill:none;stroke:#27AAE1;opacity:1;stroke-width:0.5;" x1="263" x2="3036" y1="696" y2="696"/>
  <line id="Capline-S" style="fill:none;stroke:#27AAE1;opacity:1;stroke-width:0.5;" x1="263" x2="3036" y1="625.541" y2="625.541"/>
  <g id="H-reference" style="fill:#27AAE1;stroke:none;" transform="matrix(1 0 0 1 339 1126)">
   <path d="M0.976562 0L3.66211 0L12.9883-24.4629L45.752-24.4629L55.127 0L57.7637 0L30.6152-70.459L28.125-70.459ZM29.3457-67.1387L29.4434-67.1387L44.873-26.709L13.8672-26.709Z"/>
  </g>
  <line id="Baseline-M" style="fill:none;stroke:#27AAE1;opacity:1;stroke-width:0.5;" x1="263" x2="3036" y1="1126" y2="1126"/>
  <line id="Capline-M" style="fill:none;stroke:#27AAE1;opacity:1;stroke-width:0.5;" x1="263" x2="3036" y1="1055.54" y2="1055.54"/>
  <g id="H-reference" style="fill:#27AAE1;stroke:none;" transform="matrix(1 0 0 1 339 1556)">
   <path d="M0.976562 0L3.66211 0L12.9883-24.4629L45.752-24.4629L55.127 0L57.7637 0L30.6152-70.459L28.125-70.459ZM29.3457-67.1387L29.4434-67.1387L44.873-26.709L13.8672-26.709Z"/>
  </g>
  <line id="Baseline-L" style="fill:none;stroke:#27AAE1;opacity:1;stroke-width:0.5;" x1="263" x2="3036" y1="1556" y2="1556"/>
  <line id="Capline-L" style="fill:none;stroke:#27AAE1;opacity:1;stroke-width:0.5;" x1="263" x2="3036" y1="1485.54" y2="1485.54"/>
  <line id="left-margin" style="fill:none;stroke:#00AEEF;stroke-width:0.5;opacity:1.0;" x1="1386.81" x2="1386.81" y1="1030.79" y2="1150.12"/>
  <line id="right-margin" style="fill:none;stroke:#00AEEF;stroke-width:0.5;opacity:1.0;" x1="1512.88" x2="1512.88" y1="1030.79" y2="1150.12"/>
 </g>
 <g id="Symbols">
  <g id="Black-L" transform="matrix(1 0 0 1 2849.27 1556)">
   <path d="M27.1973 6.54297L37.5 6.54297C40.0391 6.54297 40.7715 6.00586 42.1387 4.98047L46.3379 1.66016C49.3164 3.85742 53.2227 4.24805 57.0801 2.53906L77.6855-6.44531C79.3457-7.17773 80.4688-7.86133 81.7871-9.17969L143.994-71.3379C150.684-78.0273 150.684-86.5234 144.141-93.0664L129.248-107.91C122.705-114.453 114.209-114.355 107.568-107.764L45.3613-45.6543C44.0918-44.3359 43.3594-43.1641 42.627-41.4551L33.6426-20.8984C31.9336-16.9434 32.373-12.9395 34.7656-9.91211L24.5605 0.488281C22.2656 2.7832 23.2422 6.54297 27.1973 6.54297ZM116.895-95.2637C118.018-96.4355 119.043-96.3867 120.117-95.3125L131.543-83.8867C132.617-82.8125 132.666-81.7871 131.494-80.6641L129.053-78.2227L114.404-92.8223ZM61.2305-39.6973L104.639-83.0566L119.287-68.4082L75.9277-25ZM54.9316-13.1348C54.0039-12.793 53.3691-12.793 52.5879-13.5742L49.7559-16.4062C49.0234-17.1387 48.9746-17.7734 49.3652-18.7012L53.418-27.8809L64.1113-17.1875ZM23.1934 28.7598L145.068 28.7598C149.072 28.7598 152.197 25.2441 152.197 21.3867C152.197 17.3828 149.072 14.0625 145.068 14.0625L23.1934 14.0625C19.1895 14.0625 16.0645 17.4316 16.0645 21.3867C16.0645 25.1953 19.2871 28.7598 23.1934 28.7598Z"/>
  </g>
  <g id="Heavy-L" transform="matrix(1 0 0 1 2553.22 1556)">
   <path d="M26.3672 4.88281L35.8887 4.88281C38.2324 4.88281 38.916 4.44336 40.2832 3.41797L44.5312 0.0976562C47.3145 2.34375 50.9766 2.73438 54.6875 1.12305L75.3906-7.71484C77.002-8.39844 78.0273-9.08203 79.248-10.3027L141.064-71.875C147.461-78.2715 147.51-86.3281 141.162-92.6758L126.66-107.178C120.312-113.525 112.256-113.477 105.908-107.129L44.0918-45.6055C42.8711-44.3848 42.1875-43.3594 41.5039-41.6992L32.6172-20.9961C30.957-17.2363 31.3965-13.5254 33.7402-10.6934L23.9258-0.683594C21.8262 1.51367 22.7539 4.88281 26.3672 4.88281ZM114.307-96.1914C115.625-97.5098 116.992-97.5098 118.311-96.2402L130.176-84.2773C131.445-83.0078 131.445-81.6406 130.078-80.2734L127.1-77.2949L111.279-93.1641ZM58.1543-40.2344L102.588-84.5215L118.408-68.6035L74.0234-24.3652ZM52.7832-12.8418C51.8066-12.4512 51.123-12.5 50.293-13.3301L47.0215-16.6016C46.1914-17.3828 46.1426-18.1152 46.582-19.0918L51.2207-29.7852L63.5254-17.4316ZM22.5586 27.002L144.385 27.002C147.998 27.002 150.879 23.877 150.879 20.3613C150.879 16.748 147.998 13.7695 144.385 13.7695L22.5586 13.7695C18.9453 13.7695 16.0645 16.7969 16.0645 20.3613C16.0645 23.8281 18.9941 27.002 22.5586 27.002Z"/>
  </g>
  <g id="Bold-L" transform="matrix(1 0 0 1 2257.24 1556)">
   <path d="M25.4395 3.02734L34.1309 3.02734C36.2305 3.02734 36.9141 2.63672 38.2324 1.61133L42.4805-1.66016C45.0684 0.585938 48.4863 1.02539 51.9531-0.439453L72.8516-9.13086C74.4141-9.81445 75.293-10.4004 76.416-11.5234L137.744-72.4609C143.896-78.5645 143.896-86.084 137.793-92.2363L123.73-106.348C117.627-112.5 110.107-112.5 104.004-106.445L42.627-45.5566C41.5039-44.4336 40.918-43.5547 40.2344-41.9434L31.3965-21.0938C29.8828-17.627 30.2734-14.209 32.6172-11.6211L23.2422-2.00195C21.2891 0.0488281 22.2168 3.02734 25.4395 3.02734ZM111.377-97.168C112.988-98.7305 114.697-98.7305 116.211-97.2168L128.662-84.7168C130.176-83.1543 130.127-81.4453 128.516-79.8828L124.902-76.2695L107.715-93.5059ZM54.6875-40.8691L100.244-86.1328L117.432-68.8477L71.9238-23.584ZM50.4395-12.5C49.3652-12.0605 48.6328-12.1094 47.7051-13.0371L43.9453-16.7969C43.0176-17.6758 43.0176-18.457 43.457-19.5312L48.7305-31.9336L62.8906-17.6758ZM21.7773 25.0977L143.652 25.0977C146.875 25.0977 149.414 22.3633 149.414 19.2383C149.414 16.0645 146.875 13.4277 143.652 13.4277L21.7773 13.4277C18.6035 13.4277 16.0645 16.0645 16.0645 19.2383C16.0645 22.3145 18.6523 25.0977 21.7773 25.0977Z"/>
  </g>
  <g id="Semibold-L" transform="matrix(1 0 0 1 1961.04 1556)">
   <path d="M24.7559 1.75781L32.9102 1.75781C34.8145 1.75781 35.498 1.41602 36.8164 0.439453L41.1133-2.88086C43.5547-0.585938 46.7773-0.146484 50.0977-1.5625L71.0938-10.1562C72.6074-10.791 73.4375-11.3281 74.4629-12.3535L135.498-72.8516C141.455-78.7598 141.406-85.9375 135.498-91.9434L121.729-105.762C115.771-111.768 108.594-111.816 102.686-105.957L41.6016-45.5078C40.5762-44.4824 39.9902-43.7012 39.3555-42.1387L30.5664-21.1914C29.1504-17.9199 29.541-14.6973 31.8359-12.207L22.8027-2.92969C20.9473-0.976562 21.8262 1.75781 24.7559 1.75781ZM109.375-97.8516C111.133-99.5605 113.135-99.6094 114.795-97.9492L127.637-84.9609C129.248-83.3008 129.199-81.2988 127.441-79.5898L123.389-75.5371L105.273-93.7988ZM52.3438-41.3574L98.6816-87.2559L116.748-68.9941L70.459-23.0957ZM48.7793-12.2559C47.6562-11.8164 46.875-11.8652 45.8984-12.8418L41.7969-16.9434C40.8691-17.8711 40.8203-18.7012 41.2598-19.8242L47.0215-33.3984L62.5-17.8711ZM21.2891 23.7305L143.164 23.7305C146.045 23.7305 148.389 21.2891 148.389 18.457C148.389 15.5762 146.045 13.1836 143.164 13.1836L21.2891 13.1836C18.4082 13.1836 16.0645 15.5762 16.0645 18.457C16.0645 21.2891 18.4082 23.7305 21.2891 23.7305Z"/>
  </g>
  <g id="Medium-L" transform="matrix(1 0 0 1 1664.72 1556)">
   <path d="M24.2676 0.830078L31.9336 0.830078C33.7402 0.830078 34.4238 0.488281 35.6934-0.488281L40.0879-3.80859C42.3828-1.46484 45.459-1.02539 48.6816-2.39258L69.7754-10.8887C71.2402-11.5234 72.0215-12.0605 72.998-13.0371L133.789-73.1445C139.6-78.9062 139.551-85.791 133.74-91.6992L120.215-105.322C114.404-111.23 107.471-111.328 101.709-105.566L40.8691-45.459C39.8926-44.4824 39.3066-43.7988 38.6719-42.2852L29.9805-21.2402C28.6133-18.1152 28.9551-15.0879 31.25-12.6953L22.4609-3.61328C20.6543-1.70898 21.5332 0.830078 24.2676 0.830078ZM107.861-98.3887C109.766-100.195 111.963-100.244 113.721-98.4863L126.807-85.2051C128.613-83.3984 128.516-81.2012 126.611-79.3457L122.217-75L103.418-93.9941ZM50.5371-41.6992L97.4609-88.0859L116.26-69.0918L69.3359-22.7051ZM47.5586-12.0605C46.3379-11.6211 45.5566-11.6699 44.5312-12.6465L40.1855-17.041C39.209-18.0664 39.209-18.8965 39.6484-20.0684L45.752-34.5215L62.1582-17.9688ZM20.8984 22.7539L142.773 22.7539C145.459 22.7539 147.607 20.5078 147.607 17.8711C147.607 15.1855 145.459 12.9883 142.773 12.9883L20.8984 12.9883C18.2129 12.9883 16.0645 15.2344 16.0645 17.8711C16.0645 20.5078 18.2617 22.7539 20.8984 22.7539Z"/>
  </g>
  <g id="Regular-L" transform="matrix(1 0 0 1 1368.5 1556)">
   <path d="M23.6328-0.439453L30.7129-0.439453C32.373-0.439453 33.0566-0.732422 34.3262-1.70898L38.7207-5.0293L38.916-4.83398C41.1133-2.58789 43.8965-2.24609 46.875-3.4668L68.0176-11.8652C69.4824-12.4512 70.166-12.9395 71.0449-13.8672L131.543-73.584C137.158-79.1016 137.109-85.6445 131.445-91.4062L118.213-104.785C112.549-110.498 106.006-110.645 100.391-105.127L39.8438-45.459C38.9648-44.5312 38.4277-43.8965 37.8418-42.4316L29.1504-21.3379C27.8809-18.4082 28.1738-15.6738 30.4199-13.3789L30.4688-13.3301L21.9727-4.49219C20.3125-2.68555 21.1426-0.439453 23.6328-0.439453ZM105.908-99.0723C107.959-101.025 110.4-101.123 112.305-99.1699L125.781-85.498C127.686-83.4961 127.588-81.1035 125.537-79.1016L120.703-74.3164L101.025-94.2383ZM48.1934-42.1387L95.8984-89.1602L115.576-69.2383L67.8711-22.168ZM45.9473-11.8652C44.6777-11.377 43.8477-11.4258 42.7734-12.4512L38.0859-17.1875C37.0605-18.2617 37.0605-19.1406 37.5-20.3613L44.043-36.0352L61.7188-18.1152ZM20.4102 21.4355L142.285 21.4355C144.678 21.4355 146.631 19.4824 146.631 17.0898C146.631 14.7461 144.678 12.793 142.285 12.793L20.4102 12.793C18.0176 12.793 16.0645 14.7461 16.0645 17.0898C16.0645 19.4824 18.0176 21.4355 20.4102 21.4355Z"/>
  </g>
  <g id="Light-L" transform="matrix(1 0 0 1 1071.79 1556)">
   <path d="M25.3906-0.878906L31.7383-0.878906C33.2031-0.878906 33.7402-1.12305 34.8145-1.9043L39.502-5.37109L39.8438-5.0293C41.7969-3.02734 44.043-2.73438 46.7285-3.75977L68.2617-11.8652C69.5801-12.4023 70.1172-12.793 70.9961-13.6719L131.689-73.1445C136.865-78.2715 136.865-84.2773 131.641-89.6484L118.506-103.125C113.281-108.398 107.178-108.594 102.002-103.516L41.1621-44.0918C40.332-43.2129 39.8926-42.6758 39.3555-41.3574L30.8105-19.9219C29.7363-17.334 29.9316-15.0879 31.9336-13.0859L32.2266-12.7441L23.9746-4.3457C22.5586-2.83203 23.2422-0.878906 25.3906-0.878906ZM106.299-98.877C108.691-101.172 111.475-101.221 113.721-98.9258L127.441-84.9121C129.688-82.5684 129.541-79.834 127.1-77.4902L122.119-72.6074L101.221-93.9453ZM47.6074-41.4551L97.168-89.9414L118.066-68.6035L68.5059-20.0684ZM45.9473-10.2051C44.6289-9.7168 43.9453-9.81445 42.9688-10.791L37.793-16.1133C36.8164-17.041 36.7676-17.8223 37.207-19.0918L44.3359-36.6699L63.6719-16.8945ZM19.3848 20.1172L143.311 20.1172C145.117 20.1172 146.631 18.6523 146.631 16.8457C146.631 14.9902 145.117 13.5254 143.311 13.5254L19.3848 13.5254C17.5781 13.5254 16.0645 14.9902 16.0645 16.8457C16.0645 18.6523 17.5781 20.1172 19.3848 20.1172Z"/>
  </g>
  <g id="Thin-L" transform="matrix(1 0 0 1 775.05 1556)">
   <path d="M27.6855-1.41602L33.0078-1.41602C34.3262-1.41602 34.7168-1.66016 35.498-2.19727L40.5762-5.81055L41.0645-5.27344C42.6758-3.61328 44.2871-3.41797 46.5332-4.19922L68.5059-11.8652C69.7266-12.3047 70.1172-12.5488 70.9473-13.3789L131.885-72.5586C136.523-77.1484 136.523-82.5195 131.934-87.3535L118.848-100.928C114.258-105.664 108.691-105.859 104.053-101.367L42.9199-42.2852C42.1387-41.4551 41.7969-41.0645 41.3574-39.8926L33.0078-18.0664C32.1289-15.8691 32.2754-14.3066 33.9355-12.6465L34.5703-12.0117L26.6113-4.19922C25.4883-3.02734 26.0254-1.41602 27.6855-1.41602ZM106.787-98.6328C109.668-101.318 112.891-101.416 115.625-98.6328L129.59-84.1797C132.324-81.3477 132.129-78.1738 129.199-75.3906L124.023-70.3613L101.514-93.5059ZM46.875-40.5762L98.877-90.918L121.338-67.7246L69.3359-17.334ZM45.8984-8.00781C44.5312-7.51953 44.043-7.76367 43.2617-8.54492L37.3535-14.6484C36.4746-15.4785 36.377-16.1133 36.8164-17.3828L44.6777-37.5L66.3086-15.2344ZM18.0176 18.4082L144.678 18.4082C145.752 18.4082 146.68 17.5293 146.68 16.4551C146.68 15.3809 145.752 14.502 144.678 14.502L18.0176 14.502C16.9434 14.502 16.0645 15.3809 16.0645 16.4551C16.0645 17.5293 16.9434 18.4082 18.0176 18.4082Z"/>
  </g>
  <g id="Ultralight-L" transform="matrix(1 0 0 1 478.339 1556)">
   <path d="M28.8574-1.70898L33.6914-1.70898C34.9121-1.70898 35.2051-1.95312 35.8398-2.39258L41.1133-6.05469L41.6992-5.41992C43.1641-3.90625 44.4336-3.75977 46.4355-4.39453L68.6523-11.8652C69.8242-12.2559 70.1172-12.4512 70.8984-13.2324L131.982-72.2656C136.377-76.5625 136.377-81.6406 132.08-86.1816L118.994-99.8047C114.746-104.248 109.473-104.492 105.127-100.293L43.8477-41.3574C43.0664-40.5273 42.7734-40.2832 42.3828-39.1602L34.1309-17.1387C33.3984-15.1367 33.4473-13.916 34.9609-12.4023L35.7422-11.5723L27.9785-4.10156C27.002-3.17383 27.4414-1.70898 28.8574-1.70898ZM107.08-98.4863C110.156-101.416 113.672-101.514 116.553-98.4863L130.713-83.8379C133.643-80.7129 133.496-77.3438 130.322-74.3164L125-69.1895L101.709-93.3105ZM46.4844-40.1367L99.7559-91.4551L122.998-67.2852L69.7754-15.918ZM45.8984-6.88477C44.5312-6.44531 44.0918-6.68945 43.4082-7.37305L37.1094-13.916C36.3281-14.6973 36.1328-15.2344 36.6211-16.5039L44.8242-37.9883L67.627-14.3555ZM17.334 17.5293L145.41 17.5293C146.094 17.5293 146.68 16.9922 146.68 16.2598C146.68 15.5762 146.094 14.9902 145.41 14.9902L17.334 14.9902C16.6504 14.9902 16.0645 15.5762 16.0645 16.2598C16.0645 16.9922 16.6504 17.5293 17.334 17.5293Z"/>
  </g>
  <g id="Black-M" transform="matrix(1 0 0 1 2867.31 1126)">
   <path d="M23.1445-0.878906L31.7383-0.878906C33.9355-0.878906 34.4238-1.31836 35.4492-2.05078L38.8184-4.73633C41.2598-3.125 44.3359-2.83203 47.4121-4.19922L63.3789-11.1816C64.6973-11.7676 65.625-12.3047 66.748-13.4277L115.625-62.3047C120.947-67.627 120.996-74.5605 115.869-79.6875L103.809-91.6504C98.6816-96.7773 91.748-96.6797 86.5234-91.4062L37.6465-42.627C36.5234-41.5039 35.9375-40.4785 35.4004-39.1602L28.418-23.2422C26.9531-19.9707 27.3438-16.6992 29.1992-14.209L20.8984-5.9082C19.0918-4.10156 19.8242-0.878906 23.1445-0.878906ZM94.2871-80.4688C95.0684-81.25 95.6055-81.2012 96.3379-80.4688L104.688-72.168C105.42-71.4355 105.469-70.8496 104.688-70.0684L103.467-68.8477L93.0664-79.248ZM51.2695-37.5488L84.5703-70.752L94.9707-60.3516L61.7676-27.0996ZM45.4102-17.627C44.7754-17.3828 44.4336-17.4805 43.9941-17.8711L42.0898-19.7754C41.6504-20.2148 41.6016-20.6055 41.8457-21.1914L44.5312-27.2461L51.4648-20.3125ZM18.3594 15.9668L113.867 15.9668C117.188 15.9668 119.727 13.0371 119.727 9.81445C119.727 6.49414 117.188 3.75977 113.867 3.75977L18.3594 3.75977C15.0391 3.75977 12.4512 6.5918 12.4512 9.81445C12.4512 12.9883 15.0879 15.9668 18.3594 15.9668Z"/>
  </g>
  <g id="Heavy-M" transform="matrix(1 0 0 1 2571.31 1126)">
   <path d="M21.7773-2.58789L29.7363-2.58789C31.7383-2.58789 32.2754-2.97852 33.252-3.71094L36.5723-6.34766C38.8672-4.6875 41.8457-4.39453 44.8242-5.66406L60.8398-12.5977C62.1094-13.1348 62.9883-13.6719 64.0137-14.6973L112.354-62.9883C117.529-68.1152 117.529-74.6582 112.549-79.6875L100.879-91.3086C95.8984-96.2891 89.3066-96.2402 84.2285-91.1621L35.8887-42.9199C34.8145-41.8945 34.3262-41.0156 33.7402-39.6973L26.8066-23.6816C25.4395-20.6055 25.8301-17.5781 27.6367-15.2344L19.7266-7.22656C17.9688-5.46875 18.75-2.58789 21.7773-2.58789ZM91.3574-81.4941C92.2852-82.4219 93.1152-82.373 93.9453-81.4941L102.734-72.7051C103.613-71.8262 103.662-70.9961 102.734-70.0684L100.928-68.3105L89.5508-79.6875ZM48.0957-38.3301L81.9824-72.1191L93.3594-60.7422L59.5215-26.9043ZM43.1152-17.7246C42.3828-17.4805 41.9434-17.5293 41.4062-18.0664L39.1602-20.2637C38.623-20.8008 38.623-21.2891 38.8672-21.9727L42.041-29.1992L50.3418-20.8984ZM17.8711 14.4531L112.842 14.4531C115.918 14.4531 118.311 11.7676 118.311 8.78906C118.311 5.76172 115.918 3.22266 112.842 3.22266L17.8711 3.22266C14.8438 3.22266 12.4512 5.81055 12.4512 8.78906C12.4512 11.7188 14.8926 14.4531 17.8711 14.4531Z"/>
  </g>
  <g id="Bold-M" transform="matrix(1 0 0 1 2275.4 1126)">
   <path d="M20.2637-4.44336L27.4902-4.44336C29.248-4.44336 29.834-4.78516 30.8594-5.61523L34.1309-8.1543C36.2793-6.39648 39.0625-6.10352 41.8945-7.32422L58.0078-14.1602C59.2285-14.6973 60.0098-15.1855 60.9375-16.1133L108.74-63.7207C113.672-68.6523 113.672-74.8047 108.789-79.6875L97.6562-90.8691C92.7734-95.752 86.6211-95.752 81.6895-90.8691L33.8867-43.2617C32.959-42.334 32.4707-41.5527 31.9336-40.332L25.0488-24.2188C23.7793-21.3867 24.1211-18.5547 25.9277-16.3574L18.4082-8.69141C16.748-7.03125 17.4805-4.44336 20.2637-4.44336ZM88.0859-82.6172C89.1602-83.6914 90.2832-83.6914 91.3086-82.666L100.586-73.3398C101.611-72.2656 101.611-71.1914 100.537-70.1172L98.0957-67.6758L85.5957-80.1758ZM44.4824-39.2578L79.0527-73.6816L91.5527-61.1328L56.9824-26.709ZM40.5273-17.8223C39.7461-17.5293 39.209-17.5781 38.5254-18.2129L35.8887-20.8496C35.2539-21.4844 35.2539-22.0703 35.5469-22.8027L39.2578-31.3477L49.0723-21.4844ZM17.3828 12.6953L111.768 12.6953C114.502 12.6953 116.699 10.3516 116.699 7.66602C116.699 4.93164 114.502 2.63672 111.768 2.63672L17.3828 2.63672C14.6484 2.63672 12.4512 4.98047 12.4512 7.66602C12.4512 10.3027 14.6484 12.6953 17.3828 12.6953Z"/>
  </g>
  <g id="Semibold-M" transform="matrix(1 0 0 1 1979.25 1126)">
   <path d="M19.1895-5.76172L25.9766-5.76172C27.5879-5.76172 28.125-6.05469 29.1992-6.88477L32.4707-9.42383C34.4727-7.61719 37.1582-7.27539 39.8926-8.44727L56.0547-15.2344C57.2754-15.7715 57.959-16.2109 58.7891-17.0898L106.25-64.2578C111.035-69.043 111.035-74.9023 106.25-79.7363L95.4102-90.5762C90.625-95.4102 84.7656-95.4102 79.9805-90.6738L32.5195-43.5059C31.6895-42.6758 31.2012-41.9434 30.6641-40.7227L23.7793-24.6094C22.6074-21.9238 22.9004-19.2383 24.707-17.1875L17.4805-9.7168C15.918-8.05664 16.6504-5.76172 19.1895-5.76172ZM85.791-83.3984C87.0117-84.6191 88.3301-84.6191 89.4531-83.4961L99.1211-73.7305C100.244-72.6074 100.244-71.2891 99.0234-70.1172L96.1426-67.2363L82.9102-80.5176ZM41.9922-39.8438L77.0996-74.7559L90.332-61.4258L55.2734-26.5625ZM38.7207-17.9199C37.8906-17.5781 37.2559-17.5781 36.5234-18.3594L33.6426-21.1914C32.9102-21.9238 32.9102-22.6074 33.252-23.3887L37.3535-32.8613L48.2422-21.9238ZM16.9922 11.5234L110.986 11.5234C113.525 11.5234 115.576 9.32617 115.576 6.88477C115.576 4.3457 113.525 2.24609 110.986 2.24609L16.9922 2.24609C14.502 2.24609 12.4512 4.3457 12.4512 6.88477C12.4512 9.32617 14.502 11.5234 16.9922 11.5234Z"/>
  </g>
  <g id="Medium-M" transform="matrix(1 0 0 1 1682.98 1126)">
   <path d="M18.4082-6.73828L24.8047-6.73828C26.2695-6.73828 26.8555-7.03125 27.9297-7.86133L31.2012-10.3516C33.0078-8.54492 35.6934-8.1543 38.3789-9.32617L54.541-16.0645C55.7617-16.5527 56.3965-17.041 57.1777-17.8223L104.346-64.6484C109.033-69.3359 109.033-74.9512 104.297-79.7363L93.7012-90.3809C88.9648-95.1172 83.3496-95.166 78.6621-90.4785L31.4941-43.7012C30.6641-42.8711 30.2246-42.2852 29.6875-41.0156L22.8516-24.9023C21.7285-22.3145 22.0215-19.7754 23.8281-17.7734L16.7969-10.498C15.2832-8.88672 16.0156-6.73828 18.4082-6.73828ZM84.082-84.0332C85.3516-85.2539 86.8652-85.3027 88.0371-84.082L97.998-74.0723C99.2188-72.8516 99.1699-71.3867 97.8516-70.1172L94.6777-66.9434L80.8594-80.8105ZM40.1367-40.332L75.5859-75.5371L89.3555-61.6699L53.9551-26.4648ZM37.4023-17.9688C36.4746-17.627 35.8398-17.627 35.0098-18.457L31.9336-21.4844C31.1523-22.2656 31.1523-22.998 31.4941-23.8281L35.8887-34.0332L47.6074-22.2168ZM16.748 10.5957L110.449 10.5957C112.793 10.5957 114.697 8.59375 114.697 6.25C114.697 3.90625 112.793 1.95312 110.449 1.95312L16.748 1.95312C14.3555 1.95312 12.4512 3.90625 12.4512 6.25C12.4512 8.59375 14.4043 10.5957 16.748 10.5957Z"/>
  </g>
  <g id="Regular-M" transform="matrix(1 0 0 1 1386.81 1126)">
   <path d="M17.334-8.00781L23.2422-8.00781C24.6094-8.00781 25.1953-8.25195 26.2695-9.13086L29.541-11.6211L29.6387-11.5234C31.4453-9.7168 33.8867-9.375 36.377-10.4492L52.5879-17.1387C53.8086-17.627 54.3945-18.0664 55.127-18.7988L101.855-65.1855C106.445-69.7266 106.396-75.0488 101.758-79.7363L91.5039-90.0879C86.8164-94.7266 81.4941-94.8242 76.9043-90.2832L30.127-43.8965C29.3945-43.2129 28.9551-42.6758 28.4668-41.4551L21.6309-25.2441C20.6055-22.8516 20.8496-20.459 22.6562-18.6035L15.918-11.4746C14.4531-9.96094 15.1855-8.00781 17.334-8.00781ZM81.8359-84.8145C83.252-86.1328 84.9121-86.2305 86.2305-84.9121L96.5332-74.5117C97.8516-73.1445 97.7539-71.4844 96.3867-70.1172L92.7246-66.5039L78.1738-81.1523ZM37.6953-40.9668L73.584-76.6113L88.1348-61.9629L52.2461-26.3184ZM35.6445-18.0176C34.668-17.6758 33.9355-17.6758 33.0566-18.5547L29.7363-21.875C28.8574-22.7539 28.8574-23.5352 29.248-24.4141L33.9844-35.498L46.7285-22.6562ZM16.3574 9.42383L109.668 9.42383C111.816 9.42383 113.623 7.61719 113.623 5.46875C113.623 3.32031 111.816 1.5625 109.668 1.5625L16.3574 1.5625C14.209 1.5625 12.4512 3.32031 12.4512 5.46875C12.4512 7.61719 14.209 9.42383 16.3574 9.42383Z"/>
  </g>
  <g id="Light-M" transform="matrix(1 0 0 1 1090.1 1126)">
   <path d="M18.8965-8.39844L24.1211-8.39844C25.3418-8.39844 25.8301-8.64258 26.7578-9.32617L30.2734-11.9141L30.4688-11.7188C32.0801-10.1074 34.082-9.81445 36.2793-10.7422L52.7832-17.1387C53.9062-17.5781 54.3457-17.9199 55.0293-18.6035L102.002-64.7949C106.201-68.9453 106.152-73.877 101.953-78.1738L91.6992-88.5742C87.5-92.8711 82.5195-93.0176 78.3203-88.8672L31.2988-42.6758C30.6152-41.9922 30.2734-41.5527 29.834-40.4785L23.1445-23.9746C22.2168-21.8262 22.4121-19.873 24.0723-18.2129L24.2188-18.0664L17.6758-11.377C16.4551-10.0586 17.0898-8.39844 18.8965-8.39844ZM82.1777-84.6191C83.8867-86.2793 85.8887-86.3281 87.5-84.7168L97.998-73.9746C99.6094-72.3145 99.5117-70.3613 97.8027-68.7012L93.9941-64.9414L78.3691-80.8594ZM37.1582-40.332L74.7559-77.2949L90.3809-61.377L52.832-24.4141ZM35.5957-16.5527C34.6191-16.2109 34.0332-16.2598 33.2031-17.041L29.4434-20.8984C28.6621-21.6797 28.6133-22.3633 29.0039-23.291L34.2285-36.0352L48.4863-21.582ZM15.4785 8.25195L110.596 8.25195C112.256 8.25195 113.623 6.88477 113.623 5.22461C113.623 3.56445 112.256 2.19727 110.596 2.19727L15.4785 2.19727C13.8184 2.19727 12.4512 3.56445 12.4512 5.22461C12.4512 6.88477 13.8184 8.25195 15.4785 8.25195Z"/>
  </g>
  <g id="Thin-M" transform="matrix(1 0 0 1 793.361 1126)">
   <path d="M20.9473-8.88672L25.293-8.88672C26.3672-8.88672 26.709-9.13086 27.3926-9.57031L31.2012-12.3535L31.5918-11.9629C32.9102-10.5957 34.2773-10.4492 36.084-11.084L53.0273-17.1387C54.0039-17.4805 54.3457-17.7246 54.9805-18.3594L102.197-64.3066C105.908-67.9688 105.908-72.2656 102.197-76.123L92.041-86.6211C88.3301-90.3809 83.8867-90.5762 80.1758-86.9629L32.9102-41.0645C32.2754-40.4297 31.9824-40.1367 31.5918-39.1602L25.0977-22.3145C24.4141-20.5566 24.5117-19.1895 25.8789-17.8223L26.2695-17.3828L20.0684-11.2305C19.1406-10.2539 19.5801-8.88672 20.9473-8.88672ZM82.666-84.4238C84.7656-86.4258 87.207-86.4746 89.209-84.4238L99.9512-73.3398C101.953-71.2402 101.855-68.8477 99.707-66.7969L95.7031-62.9395L78.6133-80.4688ZM36.4746-39.5508L76.2695-78.1738L93.3105-60.5957L53.5645-21.9727ZM35.5957-14.5996C34.5215-14.2578 34.082-14.4043 33.4473-15.0391L29.0039-19.5801C28.3691-20.2637 28.2715-20.8008 28.6133-21.7773L34.5215-36.8164L50.8301-20.1172ZM14.2578 6.73828L111.865 6.73828C112.842 6.73828 113.672 5.9082 113.672 4.88281C113.672 3.90625 112.842 3.07617 111.865 3.07617L14.2578 3.07617C13.2812 3.07617 12.4512 3.90625 12.4512 4.88281C12.4512 5.9082 13.2812 6.73828 14.2578 6.73828Z"/>
  </g>
  <g id="Ultralight-M" transform="matrix(1 0 0 1 496.65 1126)">
   <path d="M22.0215-9.17969L25.8789-9.17969C26.9043-9.17969 27.1484-9.375 27.6855-9.7168L31.6895-12.5488L32.1289-12.1094C33.3008-10.8398 34.375-10.7422 35.9863-11.2793L53.1738-17.1387C54.1016-17.4316 54.3457-17.627 54.9316-18.2129L102.246-64.0137C105.762-67.4316 105.762-71.4844 102.344-75.0488L92.1875-85.5957C88.7695-89.1113 84.6191-89.3066 81.1523-85.9863L33.6914-40.2344C33.1055-39.5996 32.8613-39.3555 32.5195-38.5254L26.123-21.4844C25.4883-19.873 25.5859-18.8477 26.8066-17.627L27.3438-17.041L21.2891-11.1328C20.459-10.3516 20.8496-9.17969 22.0215-9.17969ZM82.9102-84.2773C85.2051-86.4746 87.8418-86.5723 90.0391-84.2773L100.977-72.998C103.174-70.6543 103.027-68.1152 100.635-65.8691L96.582-61.9141L78.7598-80.3223ZM36.1328-39.1602L77.0508-78.6621L94.8242-60.2051L53.9551-20.7031ZM35.5957-13.623C34.5215-13.2324 34.1309-13.4277 33.5938-13.9648L28.8086-18.9453C28.2227-19.5801 28.0762-19.9707 28.4668-20.9961L34.668-37.207L52.002-19.3359ZM13.623 5.95703L112.451 5.95703C113.135 5.95703 113.672 5.41992 113.672 4.73633C113.672 4.10156 113.135 3.56445 112.451 3.56445L13.623 3.56445C12.9883 3.56445 12.4512 4.10156 12.4512 4.73633C12.4512 5.41992 12.9883 5.95703 13.623 5.95703Z"/>
  </g>
  <g id="Black-S" transform="matrix(1 0 0 1 2881.67 696)">
   <path d="M18.0176-8.44727L24.707-8.44727C26.416-8.44727 26.8066-8.78906 27.5879-9.375L30.2246-11.4746C32.1289-10.1562 34.5215-9.96094 36.9629-11.0352L49.4629-16.5039C50.4883-16.9434 51.2207-17.3828 52.0996-18.2617L90.332-56.4941C94.4824-60.6445 94.5312-66.0645 90.5273-70.0684L81.1035-79.4434C77.0996-83.4473 71.6797-83.3496 67.5781-79.248L29.3457-41.0645C28.4668-40.1855 28.0273-39.4043 27.5879-38.3789L22.1191-25.8789C20.9961-23.3398 21.2891-20.8008 22.7539-18.8477L16.2598-12.3535C14.8438-10.9375 15.4297-8.44727 18.0176-8.44727ZM73.6328-70.752C74.2676-71.3867 74.707-71.3379 75.293-70.752L81.8359-64.209C82.4219-63.623 82.4707-63.1836 81.8359-62.5488L80.8594-61.5723L72.6562-69.7754ZM39.9414-37.1094L66.0156-63.1836L74.2676-54.9316L48.1934-28.8574ZM35.4004-21.4844C34.9121-21.2891 34.6191-21.3379 34.2773-21.6797L32.7637-23.1934C32.4219-23.5352 32.373-23.8281 32.5684-24.3164L34.668-29.1504L40.2344-23.584ZM14.3555 4.78516L89.1113 4.78516C91.6992 4.78516 93.7012 2.49023 93.7012 0C93.7012-2.58789 91.6992-4.73633 89.1113-4.73633L14.3555-4.73633C11.7676-4.73633 9.76562-2.53906 9.76562 0C9.76562 2.44141 11.8164 4.78516 14.3555 4.78516Z"/>
  </g>
  <g id="Heavy-S" transform="matrix(1 0 0 1 2585.52 696)">
   <path d="M16.7969-9.7168L23.0957-9.7168C24.6582-9.7168 25.0488-10.0098 25.8789-10.6445L28.4668-12.6465C30.2734-11.3281 32.6172-11.084 35.0098-12.1094L47.5098-17.5781C48.4863-18.0176 49.1699-18.457 50-19.2383L87.8418-57.0801C91.8945-61.1328 91.9434-66.3086 87.9395-70.2637L78.8574-79.2969C74.9023-83.3008 69.7266-83.2031 65.6738-79.1992L27.8809-41.4551C27.0508-40.625 26.6113-39.9414 26.1719-38.916L20.752-26.3672C19.6777-23.9746 19.9219-21.5332 21.3867-19.6777L15.1855-13.3789C13.7695-11.9629 14.4043-9.7168 16.7969-9.7168ZM71.3379-71.5332C72.0703-72.2656 72.6562-72.2168 73.3398-71.582L80.2246-64.6973C80.8594-64.0137 80.9082-63.4277 80.1758-62.6953L78.7598-61.2793L69.9219-70.1172ZM37.5488-37.793L63.916-64.1602L72.7539-55.3223L46.4355-28.9551ZM33.6426-21.7285C33.1055-21.4844 32.7148-21.5332 32.2754-21.9727L30.5664-23.6816C30.127-24.1211 30.127-24.5117 30.3223-25L32.7637-30.5664L39.1602-24.1211ZM14.1113 3.71094L88.2812 3.71094C90.6738 3.71094 92.5781 1.61133 92.5781-0.78125C92.5781-3.17383 90.6738-5.22461 88.2812-5.22461L14.1113-5.22461C11.6699-5.22461 9.76562-3.17383 9.76562-0.78125C9.76562 1.5625 11.7188 3.71094 14.1113 3.71094Z"/>
  </g>
  <g id="Bold-S" transform="matrix(1 0 0 1 2289.42 696)">
   <path d="M15.4297-11.084L21.2402-11.084C22.6562-11.084 23.1445-11.377 23.9746-12.0117L26.5137-14.0137C28.2227-12.5977 30.5176-12.3535 32.7637-13.3301L45.3125-18.7988C46.2891-19.1895 46.9238-19.6289 47.6562-20.3613L85.0586-57.666C89.0137-61.6211 89.0137-66.5527 85.0586-70.459L76.3184-79.1992C72.4121-83.1055 67.5293-83.1055 63.5742-79.1504L26.1719-41.8457C25.4395-41.1133 25.0488-40.4785 24.6094-39.4531L19.1895-26.9531C18.1641-24.6582 18.4082-22.3633 19.873-20.6543L13.916-14.502C12.5977-13.1348 13.2324-11.084 15.4297-11.084ZM68.7988-72.4609C69.5801-73.2422 70.4102-73.2422 71.1426-72.5098L78.3691-65.2344C79.1016-64.502 79.1016-63.6719 78.3203-62.8906L76.4648-61.0352L66.8945-70.5566ZM34.8633-38.5742L61.5723-65.2344L71.1426-55.7129L44.4336-29.0039ZM31.6406-21.9727C31.0547-21.7285 30.6152-21.7285 30.0293-22.3145L28.125-24.2188C27.5879-24.7559 27.5879-25.2441 27.832-25.8301L30.6152-32.1777L37.9883-24.7559ZM13.8184 2.53906L87.3047 2.53906C89.5508 2.53906 91.3574 0.585938 91.3574-1.61133C91.3574-3.85742 89.5508-5.71289 87.3047-5.71289L13.8184-5.71289C11.5723-5.71289 9.76562-3.85742 9.76562-1.61133C9.76562 0.585938 11.5723 2.53906 13.8184 2.53906Z"/>
  </g>
  <g id="Semibold-S" transform="matrix(1 0 0 1 1993.12 696)">
   <path d="M14.502-12.0605L20.0195-12.0605C21.2891-12.0605 21.7773-12.3047 22.6562-12.9883L25.1465-14.9414C26.8066-13.5254 29.0527-13.2324 31.25-14.209L43.7988-19.5801C44.7754-20.0195 45.3613-20.4102 46.0449-21.0938L83.1055-58.1055C87.0117-62.0117 86.9629-66.6992 83.1055-70.6055L74.6094-79.1016C70.7031-82.959 66.0156-83.0078 62.1094-79.1504L25.0488-42.1387C24.3652-41.4551 23.9746-40.8691 23.5352-39.8926L18.1152-27.3438C17.1387-25.1953 17.3828-22.9492 18.7988-21.2891L13.0859-15.2832C11.8164-13.9648 12.4023-12.0605 14.502-12.0605ZM67.041-73.0469C67.8711-73.877 68.7988-73.9258 69.5801-73.1445L77.1484-65.5762C77.9297-64.7949 77.8809-63.8672 77.0508-63.0371L74.8535-60.791L64.7949-70.8496ZM33.0078-39.1113L59.9609-66.0156L69.9707-55.957L43.0664-29.0527ZM30.3223-22.168C29.6387-21.875 29.1504-21.875 28.5156-22.5098L26.416-24.6094C25.7812-25.1953 25.8301-25.7324 26.0742-26.3672L29.1016-33.252L37.207-25.1465ZM13.623 1.70898L86.6211 1.70898C88.7695 1.70898 90.5273-0.0976562 90.5273-2.19727C90.5273-4.3457 88.7695-6.10352 86.6211-6.10352L13.623-6.10352C11.4746-6.10352 9.76562-4.29688 9.76562-2.19727C9.76562-0.0976562 11.5234 1.70898 13.623 1.70898Z"/>
  </g>
  <g id="Medium-S" transform="matrix(1 0 0 1 1696.75 696)">
   <path d="M13.7695-12.793L19.043-12.793C20.2637-12.793 20.752-12.9883 21.6797-13.7207L24.1211-15.6738C25.5859-14.209 27.8809-13.8672 30.0781-14.8438L42.627-20.2148C43.6035-20.6543 44.1895-21.0449 44.8242-21.6797L81.6406-58.4473C85.498-62.2559 85.4492-66.8457 81.5918-70.7031L73.291-79.0039C69.4336-82.9102 64.8438-82.9102 61.0352-79.1016L24.1699-42.334C23.5352-41.6992 23.1445-41.2109 22.7051-40.1855L17.2852-27.6367C16.4062-25.5371 16.6016-23.4375 18.0176-21.7773L12.4512-15.918C11.1816-14.5508 11.7676-12.793 13.7695-12.793ZM65.7227-73.5352C66.6016-74.4141 67.627-74.4141 68.457-73.6328L76.1719-65.8691C77.002-65.0391 76.9531-64.0137 76.0742-63.1348L73.6328-60.6445L63.2324-71.0449ZM31.5918-39.502L58.7402-66.5527L69.1406-56.1523L41.9922-29.1016ZM29.248-22.3145C28.5645-22.0215 28.0273-22.0215 27.3438-22.7051L25.0977-24.8535C24.4629-25.5371 24.5117-26.123 24.7559-26.7578L27.9785-34.082L36.6211-25.4883ZM13.4766 1.12305L86.1328 1.12305C88.1836 1.12305 89.8438-0.585938 89.8438-2.63672C89.8438-4.6875 88.1836-6.39648 86.1328-6.39648L13.4766-6.39648C11.4258-6.39648 9.76562-4.6875 9.76562-2.63672C9.76562-0.634766 11.4258 1.12305 13.4766 1.12305Z"/>
  </g>
  <g id="Regular-S" transform="matrix(1 0 0 1 1400.45 696)">
   <path d="M12.8418-13.7207L17.8223-13.7207C18.8965-13.7207 19.4336-13.916 20.3613-14.6973L22.8027-16.6016L22.8516-16.6016C24.3652-15.0391 26.5137-14.7461 28.6133-15.6738L41.1621-21.0449C42.0898-21.4844 42.627-21.875 43.2129-22.4121L79.7363-58.8867C83.4961-62.6465 83.4473-66.9922 79.6387-70.8496L71.582-78.9062C67.7246-82.7637 63.3301-82.8125 59.5703-79.0527L23.0469-42.627C22.4609-42.041 22.0703-41.6016 21.6309-40.5762L16.2598-28.0273C15.3809-26.0254 15.5762-24.0234 16.9922-22.4609L11.6211-16.6992C10.3516-15.332 10.9863-13.7207 12.8418-13.7207ZM63.9648-74.1211C64.8926-75.0488 66.0645-75.0977 66.9434-74.2188L74.9512-66.2109C75.8301-65.332 75.7812-64.1602 74.8535-63.2324L72.0215-60.4492L61.1816-71.3379ZM29.7852-40.0391L57.1289-67.334L68.0176-56.4453L40.625-29.1504ZM27.9297-22.4609C27.1973-22.168 26.5625-22.168 25.8301-22.9004L23.4375-25.2441C22.7051-25.9766 22.7539-26.6113 23.0469-27.2949L26.5137-35.2051L35.791-25.8789ZM13.2812 0.292969L85.498 0.292969C87.4023 0.292969 89.0137-1.26953 89.0137-3.22266C89.0137-5.12695 87.4023-6.73828 85.498-6.73828L13.2812-6.73828C11.377-6.73828 9.76562-5.12695 9.76562-3.22266C9.76562-1.26953 11.377 0.292969 13.2812 0.292969Z"/>
  </g>
  <g id="Light-S" transform="matrix(1 0 0 1 1103.74 696)">
   <path d="M14.209-14.0625L18.6035-14.0625C19.5801-14.0625 20.0195-14.2578 20.8008-14.8438L23.4375-16.8457L23.584-16.748C24.9023-15.3809 26.6602-15.1855 28.4668-15.918L41.3086-21.0449C42.1875-21.4355 42.627-21.7285 43.1641-22.2656L79.8828-58.5449C83.3008-61.9629 83.252-65.9668 79.7852-69.4824L71.7773-77.5879C68.3105-81.1035 64.2578-81.2012 60.8398-77.7832L24.0723-41.5527C23.5352-41.0156 23.2422-40.625 22.8516-39.6973L17.5781-26.9043C16.7969-25.0977 16.9922-23.3887 18.3594-22.0215L18.3594-21.9727L13.1836-16.6016C12.1582-15.4785 12.6465-14.0625 14.209-14.0625ZM64.2578-73.9746C65.4785-75.1465 66.9434-75.1953 68.0664-74.0723L76.2207-65.7715C77.3926-64.5996 77.2949-63.1836 76.0742-62.0117L73.1934-59.1309L61.3281-71.0938ZM29.3457-39.4531L58.1055-67.9199L69.9707-55.957L41.1621-27.4902ZM27.9297-21.1914C27.1484-20.8984 26.6113-20.8984 25.9766-21.582L23.1934-24.3652C22.5098-25 22.5098-25.5859 22.8027-26.3184L26.7578-35.6445L37.3535-24.9512ZM12.5-0.732422L86.3281-0.732422C87.793-0.732422 89.0137-1.95312 89.0137-3.41797C89.0137-4.93164 87.793-6.15234 86.3281-6.15234L12.5-6.15234C10.9863-6.15234 9.76562-4.93164 9.76562-3.41797C9.76562-1.95312 10.9863-0.732422 12.5-0.732422Z"/>
  </g>
  <g id="Thin-S" transform="matrix(1 0 0 1 807.008 696)">
   <path d="M16.0156-14.502L19.6289-14.502C20.459-14.502 20.752-14.6484 21.3379-15.0879L24.2676-17.2363L24.5117-16.9434C25.6348-15.8203 26.8066-15.6738 28.3203-16.2598L41.5039-21.0449C42.2852-21.3379 42.5781-21.5332 43.1152-22.0703L80.0293-58.1055C83.0566-61.084 83.0078-64.5508 80.0293-67.6758L72.0215-75.8789C69.043-78.9062 65.4785-79.0527 62.5-76.123L25.4883-40.1367C24.9512-39.5996 24.707-39.3555 24.4141-38.5742L19.2871-25.4395C18.7012-23.9746 18.7988-22.8027 19.9219-21.6797L20.2148-21.3867L15.2832-16.4551C14.502-15.625 14.8438-14.502 16.0156-14.502ZM64.6973-73.8281C66.2598-75.293 68.0664-75.3418 69.5801-73.8281L77.9785-65.2344C79.4434-63.6719 79.3457-61.8652 77.7344-60.3516L74.6582-57.3242L61.5723-70.752ZM28.7109-38.7695L59.4727-68.7012L72.5586-55.2734L41.8457-25.293ZM27.8809-19.4336C27.0996-19.1406 26.709-19.2383 26.1719-19.7754L22.8516-23.2422C22.2656-23.7793 22.2168-24.2188 22.5098-24.9512L27.002-36.3281L39.4043-23.6328ZM11.4258-2.05078L87.4023-2.05078C88.2812-2.05078 89.0625-2.83203 89.0625-3.71094C89.0625-4.63867 88.2812-5.37109 87.4023-5.37109L11.4258-5.37109C10.498-5.37109 9.76562-4.63867 9.76562-3.71094C9.76562-2.83203 10.498-2.05078 11.4258-2.05078Z"/>
  </g>
  <g id="Ultralight-S" transform="matrix(1 0 0 1 510.297 696)">
   <path d="M16.9922-14.7461L20.166-14.7461C20.9473-14.7461 21.1426-14.8926 21.6309-15.1855L24.707-17.3828L25.0488-17.041C25.9766-16.0645 26.9531-15.9668 28.2227-16.4062L41.6016-21.0449C42.3828-21.2891 42.5781-21.4355 43.0664-21.9727L80.127-57.8613C82.9102-60.5957 82.9102-63.8184 80.127-66.6992L72.168-74.9512C69.4336-77.7832 66.1133-77.9297 63.3301-75.2441L26.2207-39.3555C25.7324-38.8672 25.4883-38.6719 25.2441-37.9883L20.2148-24.707C19.6777-23.3887 19.7754-22.4609 20.752-21.4844L21.1426-21.0449L16.3574-16.3574C15.6738-15.7227 16.0156-14.7461 16.9922-14.7461ZM64.8926-73.6816C66.6504-75.3906 68.6523-75.4395 70.3125-73.7305L78.8574-64.8926C80.5176-63.1348 80.4199-61.1816 78.6133-59.4727L75.4395-56.3965L61.6699-70.6055ZM28.418-38.4277L60.1562-69.1406L73.877-54.8828L42.1875-24.1699ZM27.8809-18.5547C27.0508-18.2617 26.7578-18.4082 26.2695-18.8477L22.6562-22.6562C22.168-23.1445 22.0703-23.4863 22.3633-24.2676L27.1484-36.6699L40.4297-22.9492ZM10.8887-2.7832L87.9395-2.7832C88.5742-2.7832 89.0625-3.27148 89.0625-3.85742C89.0625-4.49219 88.5742-4.98047 87.9395-4.98047L10.8887-4.98047C10.2539-4.98047 9.76562-4.49219 9.76562-3.85742C9.76562-3.27148 10.2539-2.7832 10.8887-2.7832Z"/>
  </g>
 </g>
</svg>
