<?xml version="1.0" encoding="UTF-8"?>
<svg width="3300px" height="2200px" viewBox="0 0 3300 2200" version="1.1" xmlns="http://www.w3.org/2000/svg" xmlns:xlink="http://www.w3.org/1999/xlink">
    <title>eraser</title>
    <g id="Page-1" stroke="none" stroke-width="1" fill="none" fill-rule="evenodd">
        <g id="eraser">
            <g id="Notes">
                <rect id="artboard" fill="#FFFFFF" fill-rule="nonzero" x="0" y="0" width="3300" height="2200"></rect>
                <line x1="263" y1="292" x2="3036" y2="292" id="Path" stroke="#000000" stroke-width="0.5"></line>
                <text id="Weight/Scale-Variations" fill="#000000" fill-rule="nonzero" font-family="Helvetica-Bold, Helvetica" font-size="13" font-weight="bold">
                    <tspan x="263" y="322">Weight/Scale Variations</tspan>
                </text>
                <text id="Ultralight" fill="#000000" fill-rule="nonzero" font-family="Helvetica" font-size="13" font-weight="normal">
                    <tspan x="533.711" y="322">Ultralight</tspan>
                </text>
                <text id="Thin" fill="#000000" fill-rule="nonzero" font-family="Helvetica" font-size="13" font-weight="normal">
                    <tspan x="843.422" y="322">Thin</tspan>
                </text>
                <text id="Light" fill="#000000" fill-rule="nonzero" font-family="Helvetica" font-size="13" font-weight="normal">
                    <tspan x="1138.63" y="322">Light</tspan>
                </text>
                <text id="Regular" fill="#000000" fill-rule="nonzero" font-family="Helvetica" font-size="13" font-weight="normal">
                    <tspan x="1426.84" y="322">Regular</tspan>
                </text>
                <text id="Medium" fill="#000000" fill-rule="nonzero" font-family="Helvetica" font-size="13" font-weight="normal">
                    <tspan x="1723.06" y="322">Medium</tspan>
                </text>
                <text id="Semibold" fill="#000000" fill-rule="nonzero" font-family="Helvetica" font-size="13" font-weight="normal">
                    <tspan x="2015.77" y="322">Semibold</tspan>
                </text>
                <text id="Bold" fill="#000000" fill-rule="nonzero" font-family="Helvetica" font-size="13" font-weight="normal">
                    <tspan x="2326.48" y="322">Bold</tspan>
                </text>
                <text id="Heavy" fill="#000000" fill-rule="nonzero" font-family="Helvetica" font-size="13" font-weight="normal">
                    <tspan x="2618.19" y="322">Heavy</tspan>
                </text>
                <text id="Black" fill="#000000" fill-rule="nonzero" font-family="Helvetica" font-size="13" font-weight="normal">
                    <tspan x="2917.4" y="322">Black</tspan>
                </text>
                <line x1="263" y1="1903" x2="3036" y2="1903" id="Path" stroke="#000000" stroke-width="0.5"></line>
                <g id="Group" transform="translate(264.367190, 1918.068400)" fill="#000000" fill-rule="nonzero">
                    <path d="M7.88086,15.761678 C12.18751,15.761678 15.77151,12.18746 15.77151,7.88082 C15.77151,3.5742 12.17771,0 7.87109,0 C3.57422,0 -8.8817842e-16,3.5742 -8.8817842e-16,7.88082 C-8.8817842e-16,12.18746 3.58398,15.761678 7.88086,15.761678 Z M7.88086,14.277303 C4.33593,14.277303 1.5039,11.43551 1.5039,7.88082 C1.5039,4.3261 4.32617,1.4843 7.87109,1.4843 C11.42581,1.4843 14.26761,4.3261 14.2773352,7.88082 C14.28711,11.43551 11.43551,14.277303 7.88086,14.277303 Z M5.02929,8.61324 L7.13867,8.61324 L7.13867,10.73238 C7.13867,11.17183 7.43164,11.47457 7.86133,11.47457 C8.31054,11.47457 8.60351,11.17183 8.60351,10.73238 L8.60351,8.61324 L10.73241,8.61324 C11.17191,8.61324 11.47461,8.32027 11.47461,7.89058 C11.47461,7.45113 11.17191,7.1484 10.73241,7.1484 L8.60351,7.1484 L8.60351,5.03902 C8.60351,4.5898 8.31054,4.2871 7.86133,4.2871 C7.43164,4.2871 7.13867,4.5898 7.13867,5.03902 L7.13867,7.1484 L5.02929,7.1484 C4.58008,7.1484 4.27734,7.45113 4.27734,7.89058 C4.27734,8.32027 4.58008,8.61324 5.02929,8.61324 Z" id="Shape"></path>
                </g>
                <g id="Group" transform="translate(283.254050, 1915.988300)" fill="#000000" fill-rule="nonzero">
                    <path d="M9.96095,19.92186 C15.41015,19.92186 19.92185,15.40037 19.92185,9.96092 C19.92185,4.5117 15.40035,0 9.95115,0 C4.51172,0 8.8817842e-16,4.5117 8.8817842e-16,9.96092 C8.8817842e-16,15.40037 4.52148,19.92186 9.96095,19.92186 Z M9.96095,18.2617 C5.35156,18.2617 1.66992,14.57029 1.66992,9.96092 C1.66992,5.3515 5.34179,1.6601 9.95115,1.6601 C14.56055,1.6601 18.25195,5.3515 18.261769,9.96092 C18.27145,14.57029 14.57035,18.2617 9.96095,18.2617 Z M6.24023,10.78123 L9.13085,10.78123 L9.13085,13.69139 C9.13085,14.17967 9.46285,14.5117 9.94145,14.5117 C10.42965,14.5117 10.77145,14.17967 10.77145,13.69139 L10.77145,10.78123 L13.68165,10.78123 C14.16995,10.78123 14.50195,10.4492 14.50195,9.97068 C14.50195,9.4824 14.16995,9.14061 13.68165,9.14061 L10.77145,9.14061 L10.77145,6.25 C10.77145,5.7422 10.42965,5.4101 9.94145,5.4101 C9.46285,5.4101 9.13085,5.7519 9.13085,6.25 L9.13085,9.14061 L6.24023,9.14061 C5.73242,9.14061 5.40039,9.4824 5.40039,9.97068 C5.40039,10.4492 5.74218,10.78123 6.24023,10.78123 Z" id="Shape"></path>
                </g>
                <g id="Group" transform="translate(307.179860, 1913.224600)" fill="#000000" fill-rule="nonzero">
                    <path d="M12.71484,25.43946 C19.67774,25.43946 25.43944,19.6777438 25.43944,12.72462 C25.43944,5.7617 19.66794,0 12.70504,0 C5.75195,0 0,5.7617 0,12.72462 C0,19.6777438 5.76172,25.43946 12.71484,25.43946 Z M12.71484,23.62306 C6.67969,23.62306 1.82617,18.75978 1.82617,12.72462 C1.82617,6.6797 6.66992,1.8262 12.70504,1.8262 C18.75004,1.8262 23.60354,6.6797 23.6132548,12.72462 C23.62304,18.75978 18.75974,23.62306 12.71484,23.62306 Z M7.80274,13.63282 L11.80664,13.63282 L11.80664,17.64649 C11.80664,18.1836 12.17774,18.5547 12.69534,18.5547 C13.23244,18.5547 13.60354,18.1836 13.60354,17.64649 L13.60354,13.63282 L17.62694,13.63282 C18.15434,13.63282 18.53514,13.26173 18.53514,12.74415 C18.53514,12.20704 18.16404,11.82618 17.62694,11.82618 L13.60354,11.82618 L13.60354,7.8223 C13.60354,7.2656 13.23244,6.8945 12.69534,6.8945 C12.17774,6.8945 11.80664,7.2754 11.80664,7.8223 L11.80664,11.82618 L7.80274,11.82618 C7.24609,11.82618 6.875,12.20704 6.875,12.74415 C6.875,13.26173 7.25586,13.63282 7.80274,13.63282 Z" id="Shape"></path>
                </g>
                <text id="Design-Variations" fill="#000000" fill-rule="nonzero" font-family="Helvetica-Bold, Helvetica" font-size="13" font-weight="bold">
                    <tspan x="263" y="1953">Design Variations</tspan>
                </text>
                <text id="Symbols-are-supported-in-up-to-nine-weights-and-three-scales." fill="#000000" fill-rule="nonzero" font-family="Helvetica" font-size="13" font-weight="normal">
                    <tspan x="263" y="1971">Symbols are supported in up to nine weights and three scales.</tspan>
                </text>
                <text id="For-optimal-layout-with-text-and-other-symbols,-vertically-align" fill="#000000" fill-rule="nonzero" font-family="Helvetica" font-size="13" font-weight="normal">
                    <tspan x="263" y="1989">For optimal layout with text and other symbols, vertically align</tspan>
                </text>
                <text id="symbols-with-the-adjacent-text." fill="#000000" fill-rule="nonzero" font-family="Helvetica" font-size="13" font-weight="normal">
                    <tspan x="263" y="2007">symbols with the adjacent text.</tspan>
                </text>
                <line x1="776" y1="1919" x2="776" y2="1933" id="Path" stroke="#00AEEF" stroke-width="0.5"></line>
                <g id="Group" transform="translate(778.490230, 1918.712900)" fill="#000000" fill-rule="nonzero">
                    <path d="M0.82032,14.414053 C1.33789,14.414053 1.5918,14.2187406 1.77735,13.681631 L3.03711,10.2246 L8.79887,10.2246 L10.05857,13.681631 C10.24417,14.2187406 10.49807,14.414053 11.00587,14.414053 C11.52347,14.414053 11.85547,14.101553 11.85547,13.613272 C11.85547,13.447256 11.82617,13.300772 11.74807,13.08593 L7.16797,0.8984 C6.94336,0.293 6.54297,0 5.91797,0 C5.3125,0 4.90235,0.293 4.6875,0.8887 L0.10743,13.09569 C0.0293,13.310538 -4.4408921e-16,13.457022 -4.4408921e-16,13.623038 C-4.4408921e-16,14.111319 0.3125,14.414053 0.82032,14.414053 Z M3.51563,8.74999 L5.88868,2.1777 L5.9375,2.1777 L8.31057,8.74999 L3.51563,8.74999 Z" id="Shape"></path>
                </g>
                <line x1="792.836" y1="1919" x2="792.836" y2="1933" id="Path" stroke="#00AEEF" stroke-width="0.5"></line>
                <text id="Margins" fill="#000000" fill-rule="nonzero" font-family="Helvetica-Bold, Helvetica" font-size="13" font-weight="bold">
                    <tspan x="776" y="1953">Margins</tspan>
                </text>
                <text id="Leading-and-trailing-margins-on-the-left-and-right-side-of-each-symbol" fill="#000000" fill-rule="nonzero" font-family="Helvetica" font-size="13" font-weight="normal">
                    <tspan x="776" y="1971">Leading and trailing margins on the left and right side of each symbol</tspan>
                </text>
                <text id="can-be-adjusted-by-modifying-the-x-location-of-the-margin-guidelines." fill="#000000" fill-rule="nonzero" font-family="Helvetica" font-size="13" font-weight="normal">
                    <tspan x="776" y="1989">can be adjusted by modifying the x-location of the margin guidelines.</tspan>
                </text>
                <text id="Modifications-are-automatically-applied-proportionally-to-all" fill="#000000" fill-rule="nonzero" font-family="Helvetica" font-size="13" font-weight="normal">
                    <tspan x="776" y="2007">Modifications are automatically applied proportionally to all</tspan>
                </text>
                <text id="scales-and-weights." fill="#000000" fill-rule="nonzero" font-family="Helvetica" font-size="13" font-weight="normal">
                    <tspan x="776" y="2025">scales and weights.</tspan>
                </text>
                <g id="Group" transform="translate(1291.248126, 1914.517396)" fill="#000000" fill-rule="nonzero">
                    <path d="M0.593673634,20.347834 L2.29289363,22.056824 C3.15226363,22.925964 4.13859363,22.867374 5.06632363,21.841984 L15.2420736,10.631044 C15.5057736,10.718934 15.7791736,10.699404 16.0916736,10.640804 L17.1561736,10.445494 L17.8202736,11.119324 L17.7811736,11.675964 C17.7420736,12.174014 17.8690736,12.554874 18.3573736,13.033384 L19.1190736,13.775574 C19.5975736,14.254084 20.2127736,14.283384 20.6815736,13.814634 L23.5916736,10.894714 C24.0604736,10.425964 24.0409736,9.83026404 23.5623736,9.35174404 L22.7909736,8.59002404 C22.3123736,8.11150404 21.9413736,7.95530404 21.4627736,7.99430404 L20.8866736,8.04310404 L20.2420736,7.40840404 L20.4862736,6.28530404 C20.6131736,5.71890404 20.4569736,5.27950404 19.8709736,4.69350404 L17.6737736,2.50600404 C14.3338736,-0.814295964 9.90027363,-0.736195964 7.00968363,2.15450404 C6.58976363,2.56460404 6.56046363,3.14080404 6.79484363,3.53140404 C7.02921363,3.89280404 7.48820363,4.12710404 8.13277363,3.96110404 C9.59757363,3.61930404 11.1209736,3.56070404 12.5467736,4.49820404 L11.9608736,5.95330404 C11.7655736,6.43180404 11.7362736,6.83220404 11.8631736,7.19350404 L0.798753634,17.584166 C-0.187576366,18.5021352 -0.265706366,19.478698 0.593673634,20.347834 Z M8.50387363,2.52560404 C10.9354736,0.748204036 14.2264736,1.05100404 16.4530736,3.27750404 L18.8846736,5.68960404 C19.1190736,5.92400404 19.1580736,6.10960404 19.0897736,6.45140404 L18.7674736,7.93570404 L20.2713736,9.42010404 L21.2577736,9.36151404 C21.5116736,9.35174404 21.5897736,9.37127404 21.7850736,9.56658404 L22.3612736,10.142764 L19.9198736,12.584164 L19.3436736,12.007994 C19.1483736,11.812684 19.1190736,11.734554 19.1288736,11.470884 L19.1971736,10.494324 L17.7030736,9.00994404 L16.1795736,9.26385404 C15.8573736,9.33221404 15.7108736,9.30291404 15.4666736,9.06854404 L13.4647736,7.06660404 C13.2108736,6.83220404 13.1815736,6.66620404 13.3377736,6.29510404 L14.2166736,4.20530404 C12.6541736,2.75020404 10.6229736,2.12520404 8.59167363,2.72090404 C8.43547363,2.75990404 8.37687363,2.63300404 8.50387363,2.52560404 Z M3.02531363,20.787304 L1.85343363,19.625184 C1.38468363,19.166198 1.49210363,18.824401 1.89249363,18.4630728 L12.7030736,8.28730404 L14.1678736,9.77166404 L4.17765363,20.757994 C3.82609363,21.158384 3.49406363,21.256044 3.02531363,20.787304 Z" id="Shape"></path>
                </g>
                <text id="Exporting" fill="#000000" fill-rule="nonzero" font-family="Helvetica-Bold, Helvetica" font-size="13" font-weight="bold">
                    <tspan x="1289" y="1953">Exporting</tspan>
                </text>
                <text id="Symbols-should-be-outlined-when-exporting-to-ensure-the" fill="#000000" fill-rule="nonzero" font-family="Helvetica" font-size="13" font-weight="normal">
                    <tspan x="1289" y="1971">Symbols should be outlined when exporting to ensure the</tspan>
                </text>
                <text id="design-is-preserved-when-submitting-to-Xcode." fill="#000000" fill-rule="nonzero" font-family="Helvetica" font-size="13" font-weight="normal">
                    <tspan x="1289" y="1989">design is preserved when submitting to Xcode.</tspan>
                </text>
                <text id="template-version" fill="#000000" fill-rule="nonzero" font-family="Helvetica" font-size="13" font-weight="normal">
                    <tspan x="2952" y="1933">Template v.2.0</tspan>
                </text>
                <text id="Requires-Xcode-12-or-greater" fill="#000000" fill-rule="nonzero" font-family="Helvetica" font-size="13" font-weight="normal">
                    <tspan x="2865" y="1951">Requires Xcode 12 or greater</tspan>
                </text>
                <text id="Generated-from-highlighter" fill="#000000" fill-rule="nonzero" font-family="Helvetica" font-size="13" font-weight="normal">
                    <tspan x="2881" y="1969">Generated from highlighter</tspan>
                </text>
                <text id="Typeset-at-100-points" fill="#000000" fill-rule="nonzero" font-family="Helvetica" font-size="13" font-weight="normal">
                    <tspan x="2912" y="1987">Typeset at 100 points</tspan>
                </text>
                <text id="Small" fill="#000000" fill-rule="nonzero" font-family="Helvetica" font-size="13" font-weight="normal">
                    <tspan x="263" y="726">Small</tspan>
                </text>
                <text id="Medium" fill="#000000" fill-rule="nonzero" font-family="Helvetica" font-size="13" font-weight="normal">
                    <tspan x="263" y="1156">Medium</tspan>
                </text>
                <text id="Large" fill="#000000" fill-rule="nonzero" font-family="Helvetica" font-size="13" font-weight="normal">
                    <tspan x="263" y="1586">Large</tspan>
                </text>
            </g>
            <g id="Guides" transform="translate(263.000000, 625.041000)">
                <g id="H-reference" transform="translate(76.976562, 0.500000)" fill="#27AAE1" fill-rule="nonzero">
                    <path d="M-1.22124533e-15,70.459 L2.685548,70.459 L12.011738,45.9961 L44.775438,45.9961 L54.150438,70.459 L56.787138,70.459 L29.638638,0 L27.148438,0 L-1.22124533e-15,70.459 Z M28.369138,3.3203 L28.466838,3.3203 L43.896438,43.75 L12.890638,43.75 L28.369138,3.3203 Z" id="Shape"></path>
                </g>
                <line x1="0" y1="70.959" x2="2773" y2="70.959" id="Baseline-S" stroke="#27AAE1" stroke-width="0.5"></line>
                <line x1="0" y1="0.5" x2="2773" y2="0.5" id="Capline-S" stroke="#27AAE1" stroke-width="0.5"></line>
                <g id="H-reference" transform="translate(76.976562, 430.500000)" fill="#27AAE1" fill-rule="nonzero">
                    <path d="M-1.22124533e-15,70.459 L2.685548,70.459 L12.011738,45.9961 L44.775438,45.9961 L54.150438,70.459 L56.787138,70.459 L29.638638,0 L27.148438,0 L-1.22124533e-15,70.459 Z M28.369138,3.3203 L28.466838,3.3203 L43.896438,43.75 L12.890638,43.75 L28.369138,3.3203 Z" id="Shape"></path>
                </g>
                <line x1="0" y1="500.959" x2="2773" y2="500.959" id="Baseline-M" stroke="#27AAE1" stroke-width="0.5"></line>
                <line x1="0" y1="430.499" x2="2773" y2="430.499" id="Capline-M" stroke="#27AAE1" stroke-width="0.5"></line>
                <g id="H-reference" transform="translate(76.976562, 860.500000)" fill="#27AAE1" fill-rule="nonzero">
                    <path d="M-1.22124533e-15,70.459 L2.685548,70.459 L12.011738,45.9961 L44.775438,45.9961 L54.150438,70.459 L56.787138,70.459 L29.638638,0 L27.148438,0 L-1.22124533e-15,70.459 Z M28.369138,3.3203 L28.466838,3.3203 L43.896438,43.75 L12.890638,43.75 L28.369138,3.3203 Z" id="Shape"></path>
                </g>
                <line x1="0" y1="930.959" x2="2773" y2="930.959" id="Baseline-L" stroke="#27AAE1" stroke-width="0.5"></line>
                <line x1="0" y1="860.499" x2="2773" y2="860.499" id="Capline-L" stroke="#27AAE1" stroke-width="0.5"></line>
                <line x1="1123.81" y1="405.749" x2="1123.81" y2="525.079" id="left-margin" stroke="#00AEEF" stroke-width="0.5"></line>
                <line x1="1249.88" y1="405.749" x2="1249.88" y2="525.079" id="right-margin" stroke="#00AEEF" stroke-width="0.5"></line>
            </g>
            <g id="Symbols" transform="translate(494.403500, 613.613744)" fill="#000000" fill-rule="nonzero">
                <g id="Black-L" transform="translate(2370.931000, 829.623581)">
                    <path d="M11.1328,119.305645 L21.4355,119.305645 C23.9746,119.305645 24.707,118.768535 26.0742,117.743145 L30.2734,114.422835 C33.2519,116.620095 37.1582,117.010725 41.0156,115.301735 L61.621,106.317365 C63.2812,105.584945 64.4043,104.901345 65.7226,103.582985 L127.9295,41.424775 C134.6195,34.735375 134.6195,26.239275 128.0765,19.696275 L113.1835,4.85267495 C106.6405,-1.69032505 98.1445,-1.59232505 91.5035,4.99867495 L29.2968,67.108375 C28.0273,68.426775 27.2949,69.598575 26.5625,71.307575 L17.5781,91.864275 C15.8691,95.819275 16.3085,99.823175 18.7011,102.850565 L8.496,113.250956 C6.2011,115.545875 7.1777,119.305645 11.1328,119.305645 Z M100.8305,17.498975 C101.9535,16.327175 102.9785,16.375975 104.0525,17.450175 L115.4785,28.875975 C116.5525,29.950175 116.6015,30.975575 115.4295,32.098575 L112.9885,34.539975 L98.3395,19.940375 L100.8305,17.498975 Z M45.166,73.065375 L88.5745,29.706075 L103.2225,44.354475 L59.8632,87.762675 L45.166,73.065375 Z M38.8671,99.627875 C37.9394,99.969675 37.3046,99.969675 36.5234,99.188475 L33.6914,96.356475 C32.9589,95.623975 32.9101,94.989275 33.3007,94.061475 L37.3535,84.881775 L48.0468,95.575175 L38.8671,99.627875 Z" id="Shape" transform="translate(70.120602, 59.652822) scale(-1, -1) translate(-70.120602, -59.652822) "></path>
                    <path d="M7.1289,141.522475 L129.0035,141.522475 C133.0075,141.522475 136.1325,138.006775 136.1325,134.149375 C136.1325,130.145475 133.0075,126.825175 129.0035,126.825175 L7.1289,126.825175 C3.125,126.825175 0,130.194275 0,134.149375 C0,137.957975 3.2226,141.522475 7.1289,141.522475 Z" id="Path"></path>
                </g>
                <g id="Heavy-L" transform="translate(2074.881000, 830.472062)">
                    <path d="M10.3027,116.797004 L19.8242,116.797004 C22.1679,116.797004 22.8515,116.357554 24.2187,115.332164 L28.4667,112.011851 C31.25,114.257944 34.9121,114.648574 38.623,113.037244 L59.3261,104.199354 C60.9375,103.515754 61.9628,102.832164 63.1835,101.611494 L124.9995,40.0391945 C131.3965,33.6426945 131.4455,25.5860945 125.0975,19.2383945 L110.5955,4.73619448 C104.2475,-1.61080552 96.1915,-1.56280552 89.8435,4.78519448 L28.0273,66.3086945 C26.8066,67.5293945 26.123,68.5547945 25.4394,70.2149945 L16.5527,90.9180945 C14.8925,94.6778945 15.332,98.3887945 17.6757,101.220794 L7.8613,111.2306 C5.7617,113.427864 6.6894,116.797004 10.3027,116.797004 Z M98.2425,15.7227945 C99.5605,14.4043945 100.9275,14.4043945 102.2465,15.6739945 L114.1115,27.6368945 C115.3805,28.9063945 115.3805,30.2735945 114.0135,31.6407945 L111.0355,34.6192945 L95.2145,18.7500945 L98.2425,15.7227945 Z M42.0898,71.6797945 L86.5235,27.3926945 L102.3435,43.3106945 L57.9589,87.5489945 L42.0898,71.6797945 Z M36.7187,99.0723945 C35.7421,99.4629945 35.0585,99.4141945 34.2285,98.5840945 L30.957,95.3125945 C30.1269,94.5313945 30.0781,93.7989945 30.5175,92.8223945 L35.1562,82.1289945 L47.4609,94.4825945 L36.7187,99.0723945 Z" id="Shape" transform="translate(68.291254, 58.398502) scale(-1, -1) translate(-68.291254, -58.398502) "></path>
                    <path d="M6.4941,138.916194 L128.3205,138.916194 C131.9335,138.916194 134.8145,135.791194 134.8145,132.275494 C134.8145,128.662194 131.9335,125.683694 128.3205,125.683694 L6.4941,125.683694 C2.8808,125.683694 0,128.711094 0,132.275494 C0,135.742294 2.9296,138.916194 6.4941,138.916194 Z" id="Path"></path>
                </g>
                <g id="Bold-L" transform="translate(1778.901000, 831.412059)">
                    <path d="M9.375,114.001537 L18.0664,114.001537 C20.166,114.001537 20.8496,113.610917 22.1679,112.585527 L26.416,109.314037 C29.0039,111.560135 32.4218,111.999587 35.8886,110.534744 L56.7871,101.843337 C58.3496,101.159747 59.2285,100.573797 60.3515,99.4507973 L121.6795,38.5132973 C127.8315,32.4096973 127.8315,24.8901973 121.7285,18.7378973 L107.6655,4.62619726 C101.5625,-1.52580274 94.0425,-1.52580274 87.9395,4.52919726 L26.5625,65.4175973 C25.4394,66.5405973 24.8535,67.4194973 24.1699,69.0307973 L15.332,89.8803973 C13.8183,93.3471973 14.2089,96.7651973 16.5527,99.3530973 L7.1777,108.972247 C5.2246,111.023025 6.1523,114.001537 9.375,114.001537 Z M95.3125,13.8061973 C96.9235,12.2436973 98.6325,12.2436973 100.1465,13.7573973 L112.5975,26.2573973 C114.1115,27.8198973 114.0625,29.5288973 112.4515,31.0913973 L108.8375,34.7046973 L91.6505,17.4682973 L95.3125,13.8061973 Z M38.623,70.1050973 L84.1795,24.8413973 L101.3675,42.1264973 L55.8593,87.3901973 L38.623,70.1050973 Z M34.375,98.4741973 C33.3007,98.9136973 32.5683,98.8647973 31.6406,97.9370973 L27.8808,94.1772973 C26.9531,93.2983973 26.9531,92.5171973 27.3925,91.4429973 L32.666,79.0405973 L46.8261,93.2983973 L34.375,98.4741973 Z" id="Shape" transform="translate(66.230073, 57.000769) scale(-1, -1) translate(-66.230073, -57.000769) "></path>
                    <path d="M5.7128,136.071897 L127.5875,136.071897 C130.8105,136.071897 133.3495,133.337497 133.3495,130.212497 C133.3495,127.038697 130.8105,124.401897 127.5875,124.401897 L5.7128,124.401897 C2.539,124.401897 0,127.038697 0,130.212497 C0,133.288697 2.5878,136.071897 5.7128,136.071897 Z" id="Path"></path>
                </g>
                <g id="Semibold-L" transform="translate(1482.701000, 832.076914)">
                    <path d="M8.6914,112.067152 L16.8457,112.067152 C18.75,112.067152 19.4335,111.725362 20.7519,110.748795 L25.0488,107.428482 C27.4902,109.723404 30.7128,110.162858 34.0332,108.746842 L55.0293,100.153142 C56.5429,99.5183416 57.373,98.9812416 58.3984,97.9558416 L119.4335,37.4577416 C125.3905,31.5495416 125.3415,24.3718416 119.4335,18.3659416 L105.6645,4.54734158 C99.7065,-1.45865842 92.5295,-1.50665842 86.6215,4.35234158 L25.5371,64.8015416 C24.5117,65.8269416 23.9257,66.6081416 23.291,68.1706416 L14.5019,89.1179416 C13.0859,92.3894416 13.4765,95.6120416 15.7714,98.1023416 L6.7382,107.379652 C4.8828,109.33278 5.7617,112.067152 8.6914,112.067152 Z M93.3105,12.4577416 C95.0685,10.7488416 97.0705,10.6999416 98.7305,12.3601416 L111.5725,25.3484416 C113.1835,27.0085416 113.1345,29.0105416 111.3765,30.7195416 L107.3245,34.7722416 L89.2085,16.5105416 L93.3105,12.4577416 Z M36.2793,68.9519416 L82.6171,23.0534416 L100.6835,41.3152416 L54.3945,87.2136416 L36.2793,68.9519416 Z M32.7148,98.0534416 C31.5917,98.4929416 30.8105,98.4441416 29.8339,97.4675416 L25.7324,93.3659416 C24.8046,92.4382416 24.7558,91.6081416 25.1953,90.4851416 L30.957,76.9109416 L46.4355,92.4382416 L32.7148,98.0534416 Z" id="Shape" transform="translate(64.824142, 56.033576) scale(-1, -1) translate(-64.824142, -56.033576) "></path>
                    <path d="M5.2246,134.039842 L127.0995,134.039842 C129.9805,134.039842 132.3245,131.598442 132.3245,128.766342 C132.3245,125.885542 129.9805,123.492942 127.0995,123.492942 L5.2246,123.492942 C2.3437,123.492942 0,125.885542 0,128.766342 C0,131.598442 2.3437,134.039842 5.2246,134.039842 Z" id="Path"></path>
                </g>
                <g id="Medium-L" transform="translate(1186.381000, 832.565066)">
                    <path d="M8.2031,110.651268 L15.8691,110.651268 C17.6757,110.651268 18.3593,110.309471 19.6289,109.332909 L24.0234,106.0126 C26.3183,108.35635 29.3945,108.7958 32.6171,107.42861 L53.7109,98.9324896 C55.1757,98.2977896 55.957,97.7606896 56.9335,96.7840896 L117.7245,36.6766896 C123.5355,30.9149896 123.4865,24.0301896 117.6755,18.1219896 L104.1505,4.4991896 C98.3395,-1.4088104 91.4065,-1.5068104 85.6445,4.2551896 L24.8046,64.3621896 C23.8281,65.3387896 23.2421,66.0223896 22.6074,67.5359896 L13.916,88.5809896 C12.5488,91.7059896 12.8906,94.7332896 15.1855,97.1258896 L6.3964,106.20791 C4.5898,108.11221 5.4687,110.651268 8.2031,110.651268 Z M91.7965,11.4324896 C93.7015,9.6261896 95.8985,9.5771896 97.6565,11.3348896 L110.7425,24.6160896 C112.5485,26.4227896 112.4515,28.6199896 110.5465,30.4754896 L106.1525,34.8211896 L87.3535,15.8270896 L91.7965,11.4324896 Z M34.4726,68.1219896 L81.3964,21.7352896 L100.1955,40.7293896 L53.2714,87.1160896 L34.4726,68.1219896 Z M31.4941,97.7606896 C30.2734,98.2000896 29.4921,98.1512896 28.4667,97.1746896 L24.121,92.7801896 C23.1445,91.7547896 23.1445,90.9246896 23.5839,89.7527896 L29.6875,75.2996896 L46.0937,91.8523896 L31.4941,97.7606896 Z" id="Shape" transform="translate(63.754440, 55.325634) scale(-1, -1) translate(-63.754440, -55.325634) "></path>
                    <path d="M4.8339,132.57509 L126.7085,132.57509 C129.3945,132.57509 131.5425,130.32899 131.5425,127.69229 C131.5425,125.00669 129.3945,122.80949 126.7085,122.80949 L4.8339,122.80949 C2.1484,122.80949 0,125.05559 0,127.69229 C0,130.32899 2.1972,132.57509 4.8339,132.57509 Z" id="Path"></path>
                </g>
                <g id="Regular-L" transform="translate(890.161000, 833.216635)">
                    <path d="M7.5683,108.730168 L14.6484,108.730168 C16.3085,108.730168 16.9921,108.437199 18.2617,107.460641 L22.6562,104.140321 L22.8515,104.335641 C25.0488,106.581731 27.832,106.923531 30.8105,105.702821 L51.9531,97.3044209 C53.4179,96.7184209 54.1015,96.2301209 54.9804,95.3024209 L115.4785,35.5856209 C121.0935,30.0680209 121.0445,23.5251209 115.3805,17.7634209 L102.1485,4.38462092 C96.4845,-1.32837908 89.9415,-1.47537908 84.3265,4.04262092 L23.7793,63.7106209 C22.9003,64.6384209 22.3632,65.2731209 21.7773,66.7380209 L13.0859,87.8317209 C11.8164,90.7614209 12.1093,93.4958209 14.3554,95.7907209 L14.4043,95.8395209 L5.9082,104.677431 C4.248,106.484071 5.0781,108.730168 7.5683,108.730168 Z M89.8435,10.0973209 C91.8945,8.14462092 94.3355,8.04662092 96.2405,9.99972092 L109.7165,23.6716209 C111.6215,25.6735209 111.5235,28.0661209 109.4725,30.0680209 L104.6385,34.8532209 L84.9605,14.9313209 L89.8435,10.0973209 Z M32.1289,67.0309209 L79.8339,20.0094209 L99.5115,39.9313209 L51.8066,87.0016209 L32.1289,67.0309209 Z M29.8828,97.3044209 C28.6132,97.7926209 27.7832,97.7438209 26.7089,96.7184209 L22.0214,91.9821209 C20.996,90.9079209 20.996,90.0290209 21.4355,88.8083209 L27.9785,73.1344209 L45.6543,91.0544209 L29.8828,97.3044209 Z" id="Shape" transform="translate(62.351883, 54.365084) scale(-1, -1) translate(-62.351883, -54.365084) "></path>
                    <path d="M4.3457,130.605121 L126.2205,130.605121 C128.6135,130.605121 130.5665,128.652021 130.5665,126.259421 C130.5665,123.915721 128.6135,121.962621 126.2205,121.962621 L4.3457,121.962621 C1.9531,121.962621 0,123.915721 0,126.259421 C0,128.652021 1.9531,130.605121 4.3457,130.605121 Z" id="Path"></path>
                </g>
                <g id="Light-L" transform="translate(593.451000, 835.181011)">
                    <path d="M9.3261,106.326339 L15.6738,106.326339 C17.1386,106.326339 17.6757,106.082195 18.75,105.300945 L23.4375,101.834155 L23.7793,102.175945 C25.7324,104.177905 27.9785,104.470865 30.664,103.445475 L52.1972,95.3400452 C53.5156,94.8029452 54.0527,94.4122452 54.9316,93.5333452 L115.6245,34.0607452 C120.8005,28.9337452 120.8005,22.9279452 115.5765,17.5568452 L102.4415,4.08024523 C97.2165,-1.19275477 91.1135,-1.38875477 85.9375,3.68924523 L25.0976,63.1134452 C24.2675,63.9923452 23.8281,64.5294452 23.291,65.8478452 L14.746,87.2833452 C13.6718,89.8712452 13.8671,92.1173452 15.8691,94.1193452 L16.1621,94.4611452 L7.9101,102.859545 C6.4941,104.373215 7.1777,106.326339 9.3261,106.326339 Z M90.2345,8.32824523 C92.6265,6.03324523 95.4105,5.98424523 97.6565,8.27944523 L111.3765,22.2931452 C113.6235,24.6368452 113.4765,27.3712452 111.0355,29.7150452 L106.0545,34.5978452 L85.1565,13.2599452 L90.2345,8.32824523 Z M31.5429,65.7501452 L81.1035,17.2638452 L102.0015,38.6017452 L52.4414,87.1368452 L31.5429,65.7501452 Z M29.8828,97.0001452 C28.5644,97.4884452 27.8808,97.3907952 26.9043,96.4142452 L21.7285,91.0919452 C20.7519,90.1642452 20.7031,89.3829452 21.1425,88.1134452 L28.2714,70.5353452 L47.6074,90.3107452 L29.8828,97.0001452 Z" id="Shape" transform="translate(63.333988, 53.163170) scale(-1, -1) translate(-63.333988, -53.163170) "></path>
                    <path d="M3.3203,127.322445 L127.2465,127.322445 C129.0525,127.322445 130.5665,125.857545 130.5665,124.050945 C130.5665,122.195445 129.0525,120.730645 127.2465,120.730645 L3.3203,120.730645 C1.5136,120.730645 0,122.195445 0,124.050945 C0,125.857545 1.5136,127.322445 3.3203,127.322445 Z" id="Path"></path>
                </g>
                <g id="Thin-L" transform="translate(296.711000, 837.774173)">
                    <path d="M11.621,103.196063 L16.9433,103.196063 C18.2617,103.196063 18.6523,102.951923 19.4335,102.414813 L24.5117,98.8015329 L25,99.3386429 C26.6113,100.998803 28.2226,101.194113 30.4687,100.412863 L52.4414,92.7468829 C53.6621,92.3073829 54.0527,92.0632829 54.8828,91.2331829 L115.8205,32.0534829 C120.4585,27.4636829 120.4585,22.0925829 115.8695,17.2585829 L102.7835,3.68408285 C98.1935,-1.05191715 92.6265,-1.24691715 87.9885,3.24508285 L26.8554,62.3268829 C26.0742,63.1569829 25.7324,63.5475829 25.2929,64.7194829 L16.9433,86.5456829 C16.0644,88.7429829 16.2109,90.3054829 17.871,91.9655829 L18.5058,92.6003829 L10.5468,100.412863 C9.4238,101.584743 9.9609,103.196063 11.621,103.196063 Z M90.7225,5.97928285 C93.6035,3.29408285 96.8265,3.19608285 99.5605,5.97928285 L113.5255,20.4323829 C116.2595,23.2643829 116.0645,26.4382829 113.1345,29.2214829 L107.9585,34.2507829 L85.4495,11.1061829 L90.7225,5.97928285 Z M30.8105,64.0358829 L82.8125,13.6940829 L105.2735,36.8874829 L53.2714,87.2780829 L30.8105,64.0358829 Z M29.8339,96.6042729 C28.4667,97.0925529 27.9785,96.8484129 27.1972,96.0671629 L21.289,89.9636829 C20.4101,89.1335829 20.3125,88.4987829 20.7519,87.2292829 L28.6132,67.1120829 L50.2441,89.3776829 L29.8339,96.6042729 Z" id="Shape" transform="translate(64.629747, 51.598031) scale(-1, -1) translate(-64.629747, -51.598031) "></path>
                    <path d="M1.9531,123.020283 L128.6135,123.020283 C129.6875,123.020283 130.6155,122.141383 130.6155,121.067183 C130.6155,119.992983 129.6875,119.114083 128.6135,119.114083 L1.9531,119.114083 C0.8789,119.114083 0,119.992983 0,121.067183 C0,122.141383 0.8789,123.020283 1.9531,123.020283 Z" id="Path"></path>
                </g>
                <g id="Ultralight-L" transform="translate(-0.000000, 839.090729)">
                    <path d="M12.7929,101.586547 L17.6269,101.586547 C18.8476,101.586547 19.1406,101.342407 19.7753,100.902947 L25.0488,97.2408375 L25.6347,97.8756075 C27.0996,99.3892775 28.3691,99.5357575 30.371,98.9009975 L52.5878,91.4303275 C53.7597,91.0396275 54.0527,90.8443275 54.8339,90.0631275 L115.9175,31.0299275 C120.3125,26.7330275 120.3125,21.6549275 116.0155,17.1139275 L102.9295,3.49082747 C98.6815,-0.952472534 93.4085,-1.19647253 89.0625,3.00252747 L27.7832,61.9381275 C27.0019,62.7682275 26.7089,63.0123275 26.3183,64.1353275 L18.0664,86.1568275 C17.3339,88.1588275 17.3828,89.3795275 18.8964,90.8932275 L19.6777,91.7232275 L11.914,99.1939675 C10.9375,100.121697 11.3769,101.586547 12.7929,101.586547 Z M91.0155,4.80922747 C94.0915,1.87952747 97.6075,1.78152747 100.4885,4.80922747 L114.6485,19.4576275 C117.5785,22.5826275 117.4315,25.9517275 114.2575,28.9791275 L108.9355,34.1060275 L85.6445,9.98502747 L91.0155,4.80922747 Z M30.4199,63.1588275 L83.6914,11.8404275 L106.9335,36.0103275 L53.7109,87.3775275 L30.4199,63.1588275 Z M29.8339,96.4107575 C28.4667,96.8502175 28.0273,96.6060775 27.3437,95.9224775 L21.0449,89.3795275 C20.2636,88.5982275 20.0683,88.0611275 20.5566,86.7916275 L28.7597,65.3072275 L51.5625,88.9400275 L29.8339,96.4107575 Z" id="Shape" transform="translate(65.307686, 50.793274) scale(-1, -1) translate(-65.307686, -50.793274) "></path>
                    <path d="M1.2695,120.824827 L129.3455,120.824827 C130.0295,120.824827 130.6155,120.287727 130.6155,119.555327 C130.6155,118.871727 130.0295,118.285727 129.3455,118.285727 L1.2695,118.285727 C0.5859,118.285727 0,118.871727 0,119.555327 C0,120.287727 0.5859,120.824827 1.2695,120.824827 Z" id="Path"></path>
                </g>
                <g id="Black-M" transform="translate(2385.357700, 416.956753)">
                    <path d="M10.6933,94.5505971 L19.2871,94.5505971 C21.4843,94.5505971 21.9726,94.1111431 22.998,93.3787231 L26.3672,90.6931731 C28.8086,92.3045031 31.8847,92.5974731 34.9609,91.2302831 L50.9277,84.2479031 C52.2461,83.6619031 53.1738,83.1248031 54.2968,82.0018031 L103.1738,33.1248031 C108.4958,27.8025031 108.5448,20.8690031 103.4178,15.7420031 L91.3578,3.77910306 C86.2304,-1.34779694 79.2968,-1.25019694 74.0722,4.02330306 L25.1953,52.8025031 C24.0722,53.9256031 23.4863,54.9510031 22.9492,56.2693031 L15.9668,72.1873031 C14.5019,75.4588031 14.8926,78.7303031 16.748,81.2205031 L8.4472,89.5213031 C6.6406,91.3279431 7.373,94.5505971 10.6933,94.5505971 Z M81.8359,14.9607031 C82.6172,14.1795031 83.1543,14.2283031 83.8867,14.9607031 L92.2368,23.2615031 C92.9688,23.9940031 93.0178,24.5799031 92.2368,25.3611031 L91.0158,26.5818031 L80.6152,16.1815031 L81.8359,14.9607031 Z M38.8183,57.8807031 L72.1191,24.6775031 L82.5195,35.0779031 L49.3164,68.3299031 L38.8183,57.8807031 Z M32.959,77.8025031 C32.3242,78.0467031 31.9824,77.9490031 31.5429,77.5584031 L29.6386,75.6541031 C29.1992,75.2147031 29.1504,74.8240031 29.3945,74.2381031 L32.08,68.1834031 L39.0136,75.1170031 L32.959,77.8025031 Z" id="Shape" transform="translate(57.350117, 47.275299) scale(-1, -1) translate(-57.350117, -47.275299) "></path>
                    <path d="M5.9082,111.396303 L101.4158,111.396303 C104.7368,111.396303 107.2758,108.466603 107.2758,105.243953 C107.2758,101.923643 104.7368,99.1892731 101.4158,99.1892731 L5.9082,99.1892731 C2.5879,99.1892731 2.27373675e-13,102.021303 2.27373675e-13,105.243953 C2.27373675e-13,108.417803 2.6367,111.396303 5.9082,111.396303 Z" id="Path"></path>
                </g>
                <g id="Heavy-M" transform="translate(2089.357700, 417.378575)">
                    <path d="M9.3261,92.4197909 L17.2851,92.4197909 C19.2871,92.4197909 19.8242,92.0291609 20.8008,91.2967409 L24.1211,88.6600209 C26.416,90.3201809 29.3945,90.6131509 32.373,89.3436209 L48.3886,82.4099809 C49.6582,81.8728809 50.5371,81.3357809 51.5625,80.3103809 L99.9028,32.0193809 C105.0778,26.8924809 105.0778,20.3494809 100.0978,15.3201809 L88.4278,3.69908086 C83.4472,-1.28141914 76.8554,-1.23251914 71.7773,3.84558086 L23.4375,52.0877809 C22.3633,53.1131809 21.875,53.9920809 21.289,55.3103809 L14.3554,71.3260809 C12.9883,74.4021809 13.3789,77.4295809 15.1855,79.7732809 L7.2754,87.7811209 C5.5176,89.5389309 6.2988,92.4197909 9.3261,92.4197909 Z M78.9062,13.5135809 C79.834,12.5857809 80.664,12.6346809 81.4941,13.5135809 L90.2828,22.3025809 C91.1618,23.1814809 91.2108,24.0115809 90.2828,24.9392809 L88.4768,26.6971809 L77.0996,15.3201809 L78.9062,13.5135809 Z M35.6445,56.6775809 L69.5312,22.8885809 L80.9082,34.2654809 L47.0703,68.1033809 L35.6445,56.6775809 Z M30.664,77.2830809 C29.9316,77.5271809 29.4922,77.4783809 28.955,76.9412809 L26.709,74.7439809 C26.1718,74.2068809 26.1718,73.7185809 26.416,73.0349809 L29.5898,65.8084809 L37.8906,74.1092809 L30.664,77.2830809 Z" id="Shape" transform="translate(55.079464, 46.209895) scale(-1, -1) translate(-55.079464, -46.209895) "></path>
                    <path d="M5.4199,109.460781 L100.3908,109.460781 C103.4668,109.460781 105.8598,106.775281 105.8598,103.796741 C105.8598,100.769401 103.4668,98.2303409 100.3908,98.2303409 L5.4199,98.2303409 C2.3926,98.2303409 2.27373675e-13,100.818231 2.27373675e-13,103.796741 C2.27373675e-13,106.726481 2.4414,109.460781 5.4199,109.460781 Z" id="Path"></path>
                </g>
                <g id="Bold-M" transform="translate(1793.447700, 417.854981)">
                    <path d="M7.8125,90.087915 L15.039,90.087915 C16.7968,90.087915 17.3828,89.746115 18.4082,88.916045 L21.6797,86.376975 C23.8281,88.134795 26.6113,88.427755 29.4433,87.207055 L45.5566,80.371075 C46.7773,79.833975 47.5586,79.345775 48.4863,78.417975 L96.2888,30.810575 C101.2208,25.878975 101.2208,19.726575 96.3378,14.843775 L85.205,3.662175 C80.3222,-1.220725 74.1699,-1.220725 69.2383,3.662175 L21.4355,51.269575 C20.5078,52.197275 20.0195,52.978575 19.4824,54.199275 L12.5976,70.312475 C11.3281,73.144575 11.6699,75.976575 13.4765,78.173875 L5.957,85.839865 C4.2968,87.500025 5.0293,90.087915 7.8125,90.087915 Z M75.6347,11.914075 C76.709,10.839875 77.832,10.839875 78.8574,11.865275 L88.1348,21.191475 C89.1598,22.265675 89.1598,23.339875 88.0858,24.414075 L85.6445,26.855475 L73.1445,14.355475 L75.6347,11.914075 Z M32.0312,55.273475 L66.6015,20.849675 L79.1015,33.398475 L44.5312,67.822275 L32.0312,55.273475 Z M28.0761,76.708975 C27.2949,77.001975 26.7578,76.953175 26.0742,76.318375 L23.4375,73.681675 C22.8027,73.046875 22.8027,72.460975 23.0957,71.728575 L26.8066,63.183575 L36.6211,73.046875 L28.0761,76.708975 Z" id="Shape" transform="translate(52.536074, 45.043958) scale(-1, -1) translate(-52.536074, -45.043958) "></path>
                    <path d="M4.9316,107.226575 L99.3168,107.226575 C102.0508,107.226575 104.2478,104.882875 104.2478,102.197295 C104.2478,99.462915 102.0508,97.167995 99.3168,97.167995 L4.9316,97.167995 C2.1972,97.167995 0,99.511745 0,102.197295 C0,104.833975 2.1972,107.226575 4.9316,107.226575 Z" id="Path"></path>
                </g>
                <g id="Semibold-M" transform="translate(1497.297700, 418.172263)">
                    <path d="M6.7383,88.4522733 L13.5254,88.4522733 C15.1367,88.4522733 15.6738,88.1593033 16.748,87.3292233 L20.0195,84.7901633 C22.0215,86.5968033 24.707,86.9386033 27.4414,85.7667233 L43.6035,78.9795933 C44.8242,78.4424933 45.5078,78.0030933 46.3379,77.1241933 L93.7988,29.9561933 C98.5838,25.1709933 98.5838,19.3116933 93.7988,14.4776933 L82.959,3.63779331 C78.1738,-1.19620669 72.3144,-1.19620669 67.5293,3.54019331 L20.0683,50.7080933 C19.2383,51.5381933 18.75,52.2705933 18.2129,53.4912933 L11.3281,69.6045933 C10.1562,72.2901933 10.4492,74.9756933 12.2558,77.0264933 L5.0293,84.4971933 C3.4668,86.1573533 4.1992,88.4522733 6.7383,88.4522733 Z M73.3398,10.8155933 C74.5605,9.59489331 75.8789,9.59489331 77.0019,10.7178933 L86.6699,20.4834933 C87.7928,21.6065933 87.7928,22.9248933 86.5722,24.0967933 L83.6914,26.9776933 L70.459,13.6963933 L73.3398,10.8155933 Z M29.541,54.3701933 L64.6484,19.4580933 L77.8808,32.7881933 L42.8222,67.6514933 L29.541,54.3701933 Z M26.2695,76.2940933 C25.4394,76.6358933 24.8047,76.6358933 24.0722,75.8545933 L21.1914,73.0225933 C20.459,72.2901933 20.459,71.6065933 20.8008,70.8252933 L24.9023,61.3526933 L35.791,72.2901933 L26.2695,76.2940933 Z" id="Shape" transform="translate(50.799290, 44.226137) scale(-1, -1) translate(-50.799290, -44.226137) "></path>
                    <path d="M4.541,105.737393 L98.5348,105.737393 C101.0738,105.737393 103.1248,103.540163 103.1248,101.098763 C103.1248,98.5596933 101.0738,96.4600833 98.5348,96.4600833 L4.541,96.4600833 C2.0508,96.4600833 0,98.5596933 0,101.098763 C0,103.540163 2.0508,105.737393 4.541,105.737393 Z" id="Path"></path>
                </g>
                <g id="Medium-M" transform="translate(1201.027700, 418.422418)">
                    <path d="M5.957,87.2255582 L12.3535,87.2255582 C13.8183,87.2255582 14.4043,86.9325882 15.4785,86.1025082 L18.75,83.6122382 C20.5566,85.4189182 23.2422,85.8095382 25.9277,84.6376682 L42.0898,77.8993382 C43.3105,77.4111382 43.9453,76.9228382 44.7265,76.1415382 L91.8948,29.3154382 C96.5818,24.6279382 96.5818,19.0126382 91.8458,14.2275382 L81.25,3.58293822 C76.5136,-1.15336178 70.8984,-1.20216178 66.2109,3.48533822 L19.0429,50.2626382 C18.2129,51.0927382 17.7734,51.6786382 17.2363,52.9482382 L10.4004,69.0615382 C9.2773,71.6493382 9.5703,74.1884382 11.3769,76.1904382 L4.3457,83.4658382 C2.832,85.0771182 3.5644,87.2255582 5.957,87.2255582 Z M71.6308,9.93063822 C72.9004,8.70993822 74.414,8.66113822 75.5859,9.88183822 L85.5468,19.8915382 C86.7676,21.1122382 86.7187,22.5771382 85.4004,23.8466382 L82.2265,27.0204382 L68.4082,13.1533382 L71.6308,9.93063822 Z M27.6855,53.6318382 L63.1347,18.4267382 L76.9043,32.2939382 L41.5039,67.4990382 L27.6855,53.6318382 Z M24.9511,75.9950382 C24.0234,76.3368382 23.3886,76.3368382 22.5586,75.5068382 L19.4824,72.4794382 C18.7011,71.6982382 18.7011,70.9658382 19.0429,70.1357382 L23.4375,59.9306382 L35.1562,71.7470382 L24.9511,75.9950382 Z" id="Shape" transform="translate(49.480261, 43.612779) scale(-1, -1) translate(-49.480261, -43.612779) "></path>
                    <path d="M4.2968,104.559538 L97.9978,104.559538 C100.3418,104.559538 102.2458,102.557588 102.2458,100.213838 C102.2458,97.8700882 100.3418,95.9169582 97.9978,95.9169582 L4.2968,95.9169582 C1.9043,95.9169582 0,97.8700882 0,100.213838 C0,102.557588 1.9531,104.559538 4.2968,104.559538 Z" id="Path"></path>
                </g>
                <g id="Regular-M" transform="translate(904.857700, 418.757442)">
                    <path d="M4.8828,85.6210036 L10.791,85.6210036 C12.1582,85.6210036 12.7441,85.3768636 13.8183,84.4979536 L17.0898,82.0077136 L17.1875,82.1054136 C18.9941,83.9120136 21.4355,84.2538136 23.9258,83.1796136 L40.1367,76.4901136 C41.3574,76.0018136 41.9433,75.5624136 42.6758,74.8300136 L89.4038,28.4433136 C93.9938,23.9022136 93.9448,18.5800136 89.3068,13.8925136 L79.0527,3.54091361 C74.3652,-1.09778639 69.0429,-1.19538639 64.4531,3.34561361 L17.6758,49.7323136 C16.9433,50.4159136 16.5039,50.9530136 16.0156,52.1737136 L9.1797,68.3847136 C8.1543,70.7772136 8.3984,73.1698136 10.205,75.0253136 L3.4668,82.1542136 C2.0019,83.6678736 2.7343,85.6210036 4.8828,85.6210036 Z M69.3847,8.81431361 C70.8008,7.49601361 72.4609,7.39831361 73.7793,8.71671361 L84.082,19.1171136 C85.4004,20.4843136 85.3027,22.1444136 83.9355,23.5116136 L80.2734,27.1249136 L65.7226,12.4765136 L69.3847,8.81431361 Z M25.2441,52.6620136 L61.1328,17.0175136 L75.6836,31.6659136 L39.7949,67.3104136 L25.2441,52.6620136 Z M23.1933,75.6112136 C22.2168,75.9530136 21.4843,75.9530136 20.6054,75.0741136 L17.2851,71.7538136 C16.4062,70.8749136 16.4062,70.0936136 16.7968,69.2147136 L21.5332,58.1308136 L34.2773,70.9726136 L23.1933,75.6112136 Z" id="Shape" transform="translate(47.759244, 42.810502) scale(-1, -1) translate(-47.759244, -42.810502) "></path>
                    <path d="M3.9062,103.052644 L97.2168,103.052644 C99.3648,103.052644 101.1718,101.246004 101.1718,99.0975636 C101.1718,96.9491236 99.3648,95.1913136 97.2168,95.1913136 L3.9062,95.1913136 C1.7578,95.1913136 0,96.9491236 0,99.0975636 C0,101.246004 1.7578,103.052644 3.9062,103.052644 Z" id="Path"></path>
                </g>
                <g id="Light-M" transform="translate(608.147700, 420.495675)">
                    <path d="M6.4453,83.4921409 L11.6699,83.4921409 C12.8906,83.4921409 13.3789,83.2480009 14.3066,82.5644109 L17.8222,79.9764809 L18.0176,80.1717809 C19.6289,81.7831809 21.6308,82.0761309 23.8281,81.1483809 L40.332,74.7518809 C41.455,74.3124809 41.8945,73.9706809 42.5781,73.2870809 L89.5508,27.0956809 C93.7498,22.9452809 93.7008,18.0135809 89.5018,13.7167809 L79.248,3.31638091 C75.0488,-0.980519087 70.0683,-1.12701909 65.8691,3.02338091 L18.8476,49.2147809 C18.164,49.8983809 17.8222,50.3378809 17.3828,51.4120809 L10.6933,67.9159809 C9.7656,70.0643809 9.9609,72.0175809 11.6211,73.6776809 L11.7676,73.8241809 L5.2246,80.5135809 C4.0039,81.8319809 4.6386,83.4921409 6.4453,83.4921409 Z M69.7265,7.27148091 C71.4355,5.61128091 73.4375,5.56248091 75.0488,7.17378091 L85.5468,17.9159809 C87.1582,19.5760809 87.0605,21.5292809 85.3515,23.1893809 L81.5429,26.9491809 L65.9179,11.0311809 L69.7265,7.27148091 Z M24.707,51.5585809 L62.3047,14.5956809 L77.9297,30.5135809 L40.3808,67.4764809 L24.707,51.5585809 Z M23.1445,75.3378809 C22.1679,75.6796809 21.582,75.6307809 20.7519,74.8495809 L16.9922,70.9921809 C16.2109,70.2108809 16.1621,69.5272809 16.5527,68.5995809 L21.7773,55.8553809 L36.0351,70.3085809 L23.1445,75.3378809 Z" id="Shape" transform="translate(48.635533, 41.746070) scale(-1, -1) translate(-48.635533, -41.746070) "></path>
                    <path d="M3.0273,100.142531 L98.1448,100.142531 C99.8048,100.142531 101.1718,98.7753509 101.1718,97.1151909 C101.1718,95.4550309 99.8048,94.0878509 98.1448,94.0878509 L3.0273,94.0878509 C1.3672,94.0878509 0,95.4550309 0,97.1151909 C0,98.7753509 1.3672,100.142531 3.0273,100.142531 Z" id="Path"></path>
                </g>
                <g id="Thin-M" transform="translate(311.408700, 422.825677)">
                    <path d="M8.4961,80.673859 L12.8418,80.673859 C13.916,80.673859 14.2578,80.429719 14.9414,79.990269 L18.75,77.207079 L19.1406,77.597679 C20.459,78.964879 21.8261,79.111379 23.6328,78.476579 L40.5761,72.421879 C41.5527,72.080079 41.8945,71.835979 42.5293,71.201179 L89.7458,25.253979 C93.4568,21.591779 93.4568,17.294979 89.7458,13.437579 L79.5898,2.93947904 C75.8789,-0.820320955 71.4355,-1.01562096 67.7246,2.59767904 L20.459,48.496079 C19.8242,49.130879 19.5312,49.423879 19.1406,50.400379 L12.6465,67.246079 C11.9629,69.003979 12.0605,70.371079 13.4277,71.738279 L13.8183,72.177779 L7.6172,78.330079 C6.6894,79.306679 7.1289,80.673859 8.4961,80.673859 Z M70.2148,5.13677904 C72.3144,3.13477904 74.7558,3.08597904 76.7578,5.13677904 L87.5,16.220779 C89.5018,18.320379 89.4038,20.712879 87.2558,22.763679 L83.2519,26.621079 L66.1621,9.09177904 L70.2148,5.13677904 Z M24.0234,50.009779 L63.8183,11.386779 L80.8593,28.964879 L41.1133,67.587879 L24.0234,50.009779 Z M23.1445,74.960979 C22.0703,75.302779 21.6308,75.156279 20.9961,74.521479 L16.5527,69.980479 C15.9179,69.296879 15.8203,68.759779 16.1621,67.783279 L22.0703,52.744179 L38.3789,69.443379 L23.1445,74.960979 Z" id="Shape" transform="translate(49.827661, 40.336930) scale(-1, -1) translate(-49.827661, -40.336930) "></path>
                    <path d="M1.8066,96.298859 L99.4138,96.298859 C100.3908,96.298859 101.2208,95.468779 101.2208,94.443389 C101.2208,93.466829 100.3908,92.636749 99.4138,92.636749 L1.8066,92.636749 C0.83,92.636749 0,93.466829 0,94.443389 C0,95.468779 0.83,96.298859 1.8066,96.298859 Z" id="Path"></path>
                </g>
                <g id="Ultralight-M" transform="translate(14.697700, 424.027088)">
                    <path d="M9.5703,79.1794784 L13.4277,79.1794784 C14.4531,79.1794784 14.6972,78.9841684 15.2343,78.6423684 L19.2383,75.8103684 L19.6777,76.2497684 C20.8496,77.5193684 21.9238,77.6169684 23.5351,77.0798684 L40.7226,71.2204684 C41.6504,70.9275684 41.8945,70.7321684 42.4804,70.1462684 L89.7948,24.3454684 C93.3108,20.9275684 93.3108,16.8747684 89.8928,13.3103684 L79.7363,2.76346843 C76.3183,-0.75213157 72.1679,-0.94743157 68.7011,2.37286843 L21.2402,48.1247684 C20.6543,48.7595684 20.4101,49.0036684 20.0683,49.8337684 L13.6718,66.8747684 C13.0371,68.4861684 13.1347,69.5114684 14.3554,70.7321684 L14.8926,71.3181684 L8.8379,77.2263684 C8.0078,78.0075684 8.3984,79.1794784 9.5703,79.1794784 Z M70.459,4.08186843 C72.7539,1.88456843 75.3906,1.78686843 77.5879,4.08186843 L88.5258,15.3611684 C90.7228,17.7048684 90.5758,20.2439684 88.1838,22.4900684 L84.1308,26.4450684 L66.3086,8.03686843 L70.459,4.08186843 Z M23.6816,49.1989684 L64.5996,9.69706843 L82.373,28.1540684 L41.5039,67.6560684 L23.6816,49.1989684 Z M23.1445,74.7361684 C22.0703,75.1267684 21.6797,74.9314684 21.1426,74.3943684 L16.3574,69.4138684 C15.7715,68.7790684 15.625,68.3884684 16.0156,67.3630684 L22.2168,51.1521684 L39.5508,69.0232684 L23.1445,74.7361684 Z" id="Shape" transform="translate(50.419816, 39.589739) scale(-1, -1) translate(-50.419816, -39.589739) "></path>
                    <path d="M1.1718,94.3161984 L99.9998,94.3161984 C100.6838,94.3161984 101.2208,93.7790884 101.2208,93.0954984 C101.2208,92.4607284 100.6838,91.9236184 99.9998,91.9236184 L1.1718,91.9236184 C0.5371,91.9236184 0,92.4607284 0,93.0954984 C0,93.7790884 0.5371,94.3161984 1.1718,94.3161984 Z" id="Path"></path>
                </g>
                <g id="Black-S" transform="translate(2397.032120, -0.000000)">
                    <path d="M8.25198,73.9389861 L14.94138,73.9389861 C16.65038,73.9389861 17.04098,73.5971961 17.82228,73.0112561 L20.45898,70.9116561 C22.36328,72.2300561 24.75588,72.4253161 27.19728,71.3510561 L39.69728,65.8823561 C40.72268,65.4428561 41.45508,65.0034561 42.33398,64.1245561 L80.56638,25.8921561 C84.71678,21.7417561 84.76558,16.3217561 80.76168,12.3178561 L71.33788,2.94285605 C67.33398,-1.06104395 61.91408,-0.963343946 57.81248,3.13825605 L19.58008,41.3217561 C18.70118,42.2007561 18.26168,42.9819561 17.82228,44.0073561 L12.35348,56.5073561 C11.23048,59.0464561 11.52348,61.5854561 12.98828,63.5385561 L6.49418,70.0327561 C5.07818,71.4487561 5.66408,73.9389861 8.25198,73.9389861 Z M63.86718,11.6342561 C64.50198,10.9995561 64.94138,11.0483561 65.52738,11.6342561 L72.07028,18.1772561 C72.65628,18.7632561 72.70508,19.2026561 72.07028,19.8374561 L71.09378,20.8139561 L62.89058,12.6108561 L63.86718,11.6342561 Z M30.17578,45.2768561 L56.24998,19.2026561 L64.50198,27.4546561 L38.42778,53.5288561 L30.17578,45.2768561 Z M25.63478,60.9018561 C25.14648,61.0971561 24.85348,61.0483561 24.51168,60.7065561 L22.99808,59.1928561 C22.65628,58.8510561 22.60738,58.5581561 22.80278,58.0698561 L24.90238,53.2358561 L30.46878,58.8022561 L25.63478,60.9018561 Z" id="Shape" transform="translate(44.732790, 36.969493) scale(-1, -1) translate(-44.732790, -36.969493) "></path>
                    <path d="M4.58988,87.1714161 L79.34568,87.1714161 C81.93358,87.1714161 83.93558,84.8764861 83.93558,82.3862561 C83.93558,79.7983661 81.93358,77.6499261 79.34568,77.6499261 L4.58988,77.6499261 C2.00198,77.6499261 2.27373675e-13,79.8471961 2.27373675e-13,82.3862561 C2.27373675e-13,84.8276661 2.05078,87.1714161 4.58988,87.1714161 Z" id="Path"></path>
                </g>
                <g id="Heavy-S" transform="translate(2100.882120, 0.134834)">
                    <path d="M7.03128,72.534622 L13.33008,72.534622 C14.89258,72.534622 15.28318,72.241622 16.11328,71.606922 L18.70118,69.604922 C20.50778,70.923322 22.85158,71.167422 25.24418,70.142022 L37.74418,64.673322 C38.72068,64.233822 39.40428,63.794422 40.23438,63.013122 L78.07618,25.171322 C82.12888,21.118622 82.17778,15.942822 78.17388,11.987722 L69.09178,2.95452196 C65.13668,-1.04937804 59.96098,-0.951678045 55.90818,3.05222196 L18.11528,40.796322 C17.28518,41.626422 16.84568,42.310022 16.40628,43.335422 L10.98638,55.884222 C9.91208,58.276822 10.15628,60.718222 11.62108,62.573722 L5.41988,68.872522 C4.00388,70.288522 4.63868,72.534622 7.03128,72.534622 Z M61.57228,10.718222 C62.30468,9.98582196 62.89058,10.034622 63.57418,10.669422 L70.45898,17.554122 C71.09378,18.237722 71.14258,18.823722 70.41018,19.556122 L68.99418,20.972122 L60.15628,12.134222 L61.57228,10.718222 Z M27.78318,44.458422 L54.15038,18.091222 L62.98828,26.929122 L36.66988,53.296322 L27.78318,44.458422 Z M23.87698,60.522922 C23.33988,60.767022 22.94918,60.718222 22.50978,60.278722 L20.80078,58.569822 C20.36138,58.130322 20.36138,57.739722 20.55668,57.251422 L22.99808,51.685022 L29.39458,58.130322 L23.87698,60.522922 Z" id="Shape" transform="translate(42.910294, 36.267311) scale(-1, -1) translate(-42.910294, -36.267311) "></path>
                    <path d="M4.34568,85.962362 L78.51558,85.962362 C80.90818,85.962362 82.81248,83.862752 82.81248,81.470172 C82.81248,79.077592 80.90818,77.026812 78.51558,77.026812 L4.34568,77.026812 C1.90428,77.026812 2.27373675e-13,79.077592 2.27373675e-13,81.470172 C2.27373675e-13,83.813922 1.95318,85.962362 4.34568,85.962362 Z" id="Path"></path>
                </g>
                <g id="Bold-S" transform="translate(1804.782120, 0.263403)">
                    <path d="M5.66408,71.0388534 L11.47458,71.0388534 C12.89058,71.0388534 13.37888,70.7458534 14.20898,70.1111534 L16.74808,68.1091534 C18.45708,69.5251534 20.75198,69.7693534 22.99808,68.7927534 L35.54688,63.3240534 C36.52348,62.9333534 37.15818,62.4939534 37.89058,61.7615534 L75.29298,24.4568534 C79.24808,20.5017534 79.24808,15.5701534 75.29298,11.6638534 L66.55278,2.9236534 C62.64648,-0.9826466 57.76368,-0.9826466 53.80858,2.9724534 L16.40628,40.2771534 C15.67388,41.0095534 15.28318,41.6443534 14.84378,42.6697534 L9.42388,55.1697534 C8.39848,57.4646534 8.64258,59.7595534 10.10738,61.4685534 L4.15038,67.6208534 C2.83208,68.9880534 3.46715371,71.0388534 5.66408,71.0388534 Z M59.03318,9.6619534 C59.81448,8.8806534 60.64458,8.8806534 61.37698,9.6130534 L68.60348,16.8884534 C69.33598,17.6208534 69.33598,18.4509534 68.55468,19.2322534 L66.69918,21.0876534 L57.12888,11.5662534 L59.03318,9.6619534 Z M25.09768,43.5486534 L51.80668,16.8884534 L61.37698,26.4099534 L34.66798,53.1189534 L25.09768,43.5486534 Z M21.87498,60.1501534 C21.28908,60.3943534 20.84958,60.3943534 20.26368,59.8083534 L18.35938,57.9040534 C17.82228,57.3669534 17.82228,56.8787534 18.06638,56.2927534 L20.84958,49.9451534 L28.22268,57.3669534 L21.87498,60.1501534 Z" id="Shape" transform="translate(40.863274, 35.519427) scale(-1, -1) translate(-40.863274, -35.519427) "></path>
                    <path d="M4.05278,84.6619134 L77.53908,84.6619134 C79.78518,84.6619134 81.59178,82.7087914 81.59178,80.5115234 C81.59178,78.2654334 79.78518,76.4099634 77.53908,76.4099634 L4.05278,76.4099634 C1.80668,76.4099634 0,78.2654334 0,80.5115234 C0,82.7087914 1.80668,84.6619134 4.05278,84.6619134 Z" id="Path"></path>
                </g>
                <g id="Semibold-S" transform="translate(1508.482120, 0.367090)">
                    <path d="M4.73638,69.9586658 L10.25388,69.9586658 C11.52348,69.9586658 12.01168,69.7144658 12.89058,69.0308658 L15.38088,67.0777658 C17.04098,68.4937658 19.28708,68.7867658 21.48438,67.8101658 L34.03318,62.4390658 C35.00978,61.9996658 35.59568,61.6089658 36.27928,60.9253658 L73.33988,23.9136658 C77.24608,20.0074658 77.19728,15.3199658 73.33988,11.4136658 L64.84378,2.91756575 C60.93748,-0.939834246 56.24998,-0.988634246 52.34378,2.86876575 L15.28318,39.8804658 C14.59958,40.5640658 14.20898,41.1500658 13.76958,42.1265658 L8.34958,54.6753658 C7.37308,56.8238658 7.61718,59.0699658 9.03318,60.7300658 L3.32028,66.7359658 C2.05078,68.0543658 2.63668,69.9586658 4.73638,69.9586658 Z M57.27538,8.97226575 C58.10548,8.14216575 59.03318,8.09336575 59.81448,8.87466575 L67.38278,16.4429658 C68.16408,17.2242658 68.11528,18.1519658 67.28518,18.9820658 L65.08788,21.2281658 L55.02928,11.1695658 L57.27538,8.97226575 Z M23.24218,42.9078658 L50.19528,16.0035658 L60.20508,26.0621658 L33.30078,52.9664658 L23.24218,42.9078658 Z M20.55668,59.8511658 C19.87308,60.1441658 19.38478,60.1441658 18.74998,59.5093658 L16.65038,57.4097658 C16.01558,56.8238658 16.06448,56.2867658 16.30858,55.6519658 L19.33598,48.7671658 L27.44138,56.8726658 L20.55668,59.8511658 Z" id="Shape" transform="translate(39.452854, 34.979333) scale(-1, -1) translate(-39.452854, -34.979333) "></path>
                    <path d="M3.85738,83.7281458 L76.85548,83.7281458 C79.00388,83.7281458 80.76168,81.9215096 80.76168,79.8218958 C80.76168,77.6734658 79.00388,75.9156458 76.85548,75.9156458 L3.85738,75.9156458 C1.70898,75.9156458 2.27373675e-13,77.7222858 2.27373675e-13,79.8218958 C2.27373675e-13,81.9215096 1.75778,83.7281458 3.85738,83.7281458 Z" id="Path"></path>
                </g>
                <g id="Medium-S" transform="translate(1212.112120, 0.440303)">
                    <path d="M4.00388,69.1529535 L9.27738,69.1529535 C10.49808,69.1529535 10.98638,68.9576535 11.91408,68.2252535 L14.35548,66.2721535 C15.82028,67.7369535 18.11528,68.0787535 20.31248,67.1021535 L32.86138,61.7311535 C33.83788,61.2916535 34.42388,60.9010535 35.05858,60.2662535 L71.87498,23.4986535 C75.73238,19.6900535 75.68358,15.1002535 71.82618,11.2428535 L63.52538,2.9420535 C59.66798,-0.964246504 55.07818,-0.964246504 51.26958,2.8443535 L14.40428,39.6119535 C13.76958,40.2467535 13.37888,40.7350535 12.93948,41.7604535 L7.51958,54.3092535 C6.64058,56.4088535 6.83598,58.5084535 8.25198,60.1686535 L2.68558,66.0279535 C1.41598,67.3951535 2.00198,69.1529535 4.00388,69.1529535 Z M55.95708,8.4107535 C56.83598,7.5318535 57.86138,7.5318535 58.69138,8.3131535 L66.40628,16.0768535 C67.23638,16.9068535 67.18748,17.9322535 66.30858,18.8111535 L63.86718,21.3014535 L53.46678,10.9010535 L55.95708,8.4107535 Z M21.82618,42.4439535 L48.97458,15.3932535 L59.37498,25.7936535 L32.22658,52.8443535 L21.82618,42.4439535 Z M19.48238,59.6314535 C18.79888,59.9244535 18.26168,59.9244535 17.57818,59.2408535 L15.33208,57.0924535 C14.69728,56.4088535 14.74608,55.8229535 14.99028,55.1881535 L18.21288,47.8639535 L26.85548,56.4576535 L19.48238,59.6314535 Z" id="Shape" transform="translate(38.379530, 34.576477) scale(-1, -1) translate(-38.379530, -34.576477) "></path>
                    <path d="M3.71098,83.0690035 L76.36718,83.0690035 C78.41798,83.0690035 80.07818,81.3600155 80.07818,79.3092335 C80.07818,77.2584535 78.41798,75.5494735 76.36718,75.5494735 L3.71098,75.5494735 C1.66018,75.5494735 2.27373675e-13,77.2584535 2.27373675e-13,79.3092335 C2.27373675e-13,81.3111875 1.66018,83.0690035 3.71098,83.0690035 Z" id="Path"></path>
                </g>
                <g id="Regular-S" transform="translate(915.812120, 0.549849)">
                    <path d="M3.07618,68.1157069 L8.05668,68.1157069 C9.13088,68.1157069 9.66798,67.9204069 10.59568,67.1391069 L13.03708,65.2348069 L13.08598,65.2348069 C14.59958,66.7973069 16.74808,67.0903069 18.84768,66.1626069 L31.39648,60.7915069 C32.32418,60.3520069 32.86138,59.9614069 33.44728,59.4243069 L69.97068,22.9497069 C73.73048,19.1899069 73.68168,14.8442069 69.87308,10.9868069 L61.81638,2.93020693 C57.95898,-0.927293066 53.56448,-0.976093066 49.80468,2.78370693 L13.28128,39.2094069 C12.69528,39.7954069 12.30468,40.2348069 11.86528,41.2602069 L6.49418,53.8091069 C5.61528,55.8110069 5.81058,57.8130069 7.22658,59.3755069 L1.85548,65.1372069 C0.58598,66.5044069 1.22068,68.1157069 3.07618,68.1157069 Z M54.19918,7.71530693 C55.12698,6.78760693 56.29888,6.73870693 57.17778,7.61760693 L65.18558,15.6255069 C66.06448,16.5044069 66.01558,17.6762069 65.08788,18.6040069 L62.25588,21.3872069 L51.41598,10.4985069 L54.19918,7.71530693 Z M20.01958,41.7973069 L47.36328,14.5024069 L58.25198,25.3911069 L30.85938,52.6860069 L20.01958,41.7973069 Z M18.16408,59.3755069 C17.43168,59.6684069 16.79688,59.6684069 16.06448,58.9360069 L13.67188,56.5923069 C12.93948,55.8598069 12.98828,55.2251069 13.28128,54.5415069 L16.74808,46.6313069 L26.02538,55.9575069 L18.16408,59.3755069 Z" id="Shape" transform="translate(36.976554, 34.057853) scale(-1, -1) translate(-36.976554, -34.057853) "></path>
                    <path d="M3.51558,82.1293759 L75.73238,82.1293759 C77.63668,82.1293759 79.24808,80.5668769 79.24808,78.6137469 C79.24808,76.7094569 77.63668,75.0981269 75.73238,75.0981269 L3.51558,75.0981269 C1.61138,75.0981269 0,76.7094569 0,78.6137469 C0,80.5668769 1.61138,82.1293759 3.51558,82.1293759 Z" id="Path"></path>
                </g>
                <g id="Light-S" transform="translate(619.102120, 2.099445)">
                    <path d="M4.44338,66.2243107 L8.83788,66.2243107 C9.81448,66.2243107 10.25388,66.0290107 11.03518,65.4430107 L13.67188,63.4411107 L13.81838,63.5388107 C15.13668,64.9059107 16.89458,65.1013107 18.70118,64.3688107 L31.54298,59.2419107 C32.42188,58.8513107 32.86138,58.5583107 33.39848,58.0212107 L70.11718,21.7419107 C73.53518,18.3239107 73.48638,14.3200107 70.01958,10.8044107 L62.01168,2.69891066 C58.54488,-0.816689341 54.49218,-0.914389341 51.07418,2.50361066 L14.30668,38.7341107 C13.76958,39.2712107 13.47658,39.6618107 13.08598,40.5895107 L7.81248,53.3825107 C7.03128,55.1891107 7.22658,56.8981107 8.59378,58.2653107 L8.59378,58.3141107 L3.41798,63.6852107 C2.39258,64.8083107 2.88088,66.2243107 4.44338,66.2243107 Z M54.49218,6.31221066 C55.71288,5.14031066 57.17778,5.09151066 58.30078,6.21451066 L66.45508,14.5153107 C67.62698,15.6872107 67.52928,17.1032107 66.30858,18.2751107 L63.42778,21.1559107 L51.56248,9.19301066 L54.49218,6.31221066 Z M19.58008,40.8337107 L48.33988,12.3669107 L60.20508,24.3298107 L31.39648,52.7966107 L19.58008,40.8337107 Z M18.16408,59.0954107 C17.38278,59.3884107 16.84568,59.3884107 16.21098,58.7048107 L13.42778,55.9216107 C12.74418,55.2868107 12.74418,54.7009107 13.03708,53.9684107 L16.99218,44.6423107 L27.58788,55.3356107 L18.16408,59.0954107 Z" id="Shape" transform="translate(37.764505, 33.112155) scale(-1, -1) translate(-37.764505, -33.112155) "></path>
                    <path d="M2.73438,79.5543887 L76.56248,79.5543887 C78.02738,79.5543887 79.24808,78.3336907 79.24808,76.8688407 C79.24808,75.3551707 78.02738,74.1344707 76.56248,74.1344707 L2.73438,74.1344707 C1.22068,74.1344707 0,75.3551707 0,76.8688407 C0,78.3336907 1.22068,79.5543887 2.73438,79.5543887 Z" id="Path"></path>
                </g>
                <g id="Thin-S" transform="translate(322.370120, 4.149031)">
                    <path d="M6.24998,63.7352252 L9.86328,63.7352252 C10.69338,63.7352252 10.98638,63.5888252 11.57228,63.1493252 L14.50198,61.0009252 L14.74608,61.2938252 C15.86918,62.4169252 17.04098,62.5634252 18.55468,61.9774252 L31.73828,57.1923252 C32.51958,56.8993252 32.81248,56.7040252 33.34958,56.1669252 L70.26368,20.1317252 C73.29098,17.1532252 73.24218,13.6864252 70.26368,10.5614252 L62.25588,2.35832523 C59.27738,-0.668974772 55.71288,-0.815474772 52.73438,2.11422523 L15.72268,38.1005252 C15.18558,38.6376252 14.94138,38.8817252 14.64848,39.6630252 L9.52148,52.7977252 C8.93558,54.2626252 9.03318,55.4345252 10.15628,56.5575252 L10.44918,56.8505252 L5.51758,61.7821252 C4.73638,62.6122252 5.07818,63.7352252 6.24998,63.7352252 Z M54.93168,4.40912523 C56.49418,2.94422523 58.30078,2.89542523 59.81448,4.40912523 L68.21288,13.0028252 C69.67778,14.5653252 69.58008,16.3720252 67.96878,17.8856252 L64.89258,20.9130252 L51.80668,7.48522523 L54.93168,4.40912523 Z M18.94528,39.4677252 L49.70708,9.53602523 L62.79298,22.9638252 L32.08008,52.9442252 L18.94528,39.4677252 Z M18.11528,58.8036252 C17.33398,59.0966252 16.94338,58.9989252 16.40628,58.4618252 L13.08598,54.9950252 C12.49998,54.4579252 12.45118,54.0184252 12.74418,53.2860252 L17.23638,41.9091252 L29.63868,54.6044252 L18.11528,58.8036252 Z" id="Shape" transform="translate(38.806323, 31.867613) scale(-1, -1) translate(-38.806323, -31.867613) "></path>
                    <path d="M1.66018,76.1864452 L77.63668,76.1864452 C78.51558,76.1864452 79.29688,75.4051952 79.29688,74.5262852 C79.29688,73.5985552 78.51558,72.8661352 77.63668,72.8661352 L1.66018,72.8661352 C0.73238,72.8661352 0,73.5985552 0,74.5262852 C0,75.4051952 0.73238,76.1864452 1.66018,76.1864452 Z" id="Path"></path>
                </g>
                <g id="Ultralight-S" transform="translate(25.659120, 5.216227)">
                    <path d="M7.22658,62.4239294 L10.40038,62.4239294 C11.18168,62.4239294 11.37698,62.2774294 11.86528,61.9845294 L14.94138,59.7872294 L15.28318,60.1290294 C16.21098,61.1055294 17.18748,61.2032294 18.45708,60.7638294 L31.83598,56.1251294 C32.61718,55.8809294 32.81248,55.7345294 33.30078,55.1973294 L70.36138,19.3087294 C73.14458,16.5743294 73.14458,13.3516294 70.36138,10.4708294 L62.40238,2.21882935 C59.66798,-0.613170647 56.34768,-0.759670647 53.56448,1.92592935 L16.45508,37.8145294 C15.96678,38.3028294 15.72268,38.4981294 15.47848,39.1817294 L10.44918,52.4630294 C9.91208,53.7813294 10.00978,54.7091294 10.98638,55.6856294 L11.37698,56.1251294 L6.59178,60.8126294 C5.90818,61.4473294 6.24998,62.4239294 7.22658,62.4239294 Z M55.12698,3.48842935 C56.88478,1.77942935 58.88668,1.73052935 60.54688,3.43952935 L69.09178,12.2774294 C70.75198,14.0352294 70.65428,15.9884294 68.84768,17.6973294 L65.67388,20.7735294 L51.90428,6.56452935 L55.12698,3.48842935 Z M18.65238,38.7423294 L50.39058,8.02942935 L64.11138,22.2872294 L32.42188,53.0001294 L18.65238,38.7423294 Z M18.11528,58.6153294 C17.28518,58.9083294 16.99218,58.7618294 16.50388,58.3223294 L12.89058,54.5138294 C12.40238,54.0255294 12.30468,53.6837294 12.59768,52.9024294 L17.38278,40.5001294 L30.66408,54.2208294 L18.11528,58.6153294 Z" id="Shape" transform="translate(39.341355, 31.211965) scale(-1, -1) translate(-39.341355, -31.211965) "></path>
                    <path d="M1.12308,74.3868294 L78.17388,74.3868294 C78.80858,74.3868294 79.29688,73.8985494 79.29688,73.3126094 C79.29688,72.6778394 78.80858,72.1895594 78.17388,72.1895594 L1.12308,72.1895594 C0.48828,72.1895594 0,72.6778394 0,73.3126094 C0,73.8985494 0.48828,74.3868294 1.12308,74.3868294 Z" id="Path"></path>
                </g>
            </g>
        </g>
    </g>
</svg>